<?xml version="1.0" standalone="no"?>
<!DOCTYPE svg PUBLIC "-//W3C//DTD SVG 20010904//EN"
 "http://www.w3.org/TR/2001/REC-SVG-20010904/DTD/svg10.dtd">
<svg version="1.0" xmlns="http://www.w3.org/2000/svg"
 width="293.000000pt" height="486.000000pt" viewBox="0 0 293.000000 486.000000"
 preserveAspectRatio="xMidYMid meet">

<g transform="translate(0.000000,486.000000) scale(0.100000,-0.100000)"
fill="#000000" stroke="none">
<path d="M1455 3913 c-11 -2 -38 -13 -60 -23 -22 -10 -67 -21 -100 -25 -70 -9
-158 -39 -176 -61 -7 -9 -40 -29 -73 -46 -65 -32 -176 -127 -189 -161 -4 -11
-28 -49 -53 -84 -98 -137 -156 -373 -134 -543 5 -41 10 -100 10 -130 0 -34 8
-72 22 -100 17 -35 21 -63 20 -128 0 -48 5 -99 13 -123 12 -33 12 -60 4 -149
-12 -123 -9 -145 23 -182 32 -35 48 -64 48 -86 0 -10 4 -22 9 -28 5 -5 12 -28
15 -52 9 -71 46 -183 77 -239 16 -29 29 -61 29 -72 0 -17 -47 -61 -64 -61 -4
0 -19 -9 -34 -20 -15 -11 -54 -29 -87 -40 -208 -66 -445 -167 -429 -182 3 -3
-10 -15 -28 -26 -80 -50 -90 -73 -55 -137 13 -25 16 -27 17 -10 1 15 4 12 11
-10 6 -16 12 -37 14 -45 2 -8 4 -17 5 -20 1 -3 2 -8 1 -12 0 -5 5 -8 12 -8 8
0 14 -6 15 -12 10 -152 28 -176 35 -48 3 66 10 116 16 118 6 2 11 13 11 24 0
19 2 20 17 6 10 -8 30 -14 45 -13 44 2 42 -42 -9 -172 -31 -79 -43 -123 -41
-150 3 -35 6 -30 37 62 19 55 46 124 60 154 23 51 25 53 32 29 4 -15 1 -51 -6
-82 -10 -41 -10 -56 -1 -60 7 -3 8 -7 1 -13 -5 -4 -10 -19 -11 -33 -1 -14 -5
-34 -9 -45 -5 -12 7 -4 28 18 21 21 37 43 37 48 0 6 4 8 9 4 5 -3 13 5 17 17
11 37 27 39 57 5 30 -35 30 -23 7 -182 -24 -171 -27 -202 -23 -232 8 -53 20
-39 37 45 15 67 39 167 66 267 14 55 29 85 43 85 24 0 84 -92 90 -140 4 -25
13 -79 20 -120 17 -86 16 -327 -1 -430 -6 -36 -15 -92 -21 -125 -5 -33 -12
-77 -16 -98 -6 -31 -4 -37 9 -37 17 0 24 10 29 45 1 11 6 25 10 32 4 7 8 29 8
50 0 21 5 61 10 88 4 28 11 64 14 80 10 56 7 314 -4 347 -10 33 -17 79 -26
172 -6 54 -6 54 55 -1 14 -13 32 -23 41 -23 8 0 26 -11 39 -25 13 -14 43 -36
66 -50 44 -26 60 -58 100 -200 9 -33 22 -76 29 -95 7 -19 23 -75 35 -125 13
-50 27 -94 31 -100 5 -5 9 -20 10 -35 0 -46 43 -155 62 -158 12 -3 17 3 17 22
0 14 -4 27 -9 30 -5 4 -12 25 -16 49 -4 23 -15 71 -25 107 -11 36 -27 99 -36
140 -9 41 -38 142 -65 225 -27 82 -49 152 -49 156 0 4 32 -22 71 -59 39 -36
79 -72 89 -79 16 -11 17 -18 9 -36 -7 -16 -7 -31 2 -52 13 -30 13 -30 19 25 4
48 8 55 28 58 16 3 33 -8 57 -35 24 -26 35 -33 35 -21 0 9 -39 52 -87 95 -47
43 -114 103 -147 134 -34 31 -72 65 -85 75 -45 36 -206 175 -244 211 -43 41
-67 90 -67 137 0 27 4 32 26 34 14 1 34 7 45 12 15 9 21 7 26 -6 4 -11 14 -14
32 -11 15 3 31 3 36 -1 19 -13 35 -52 35 -82 0 -17 6 -33 14 -36 8 -3 17 -12
20 -20 3 -9 1 -12 -4 -9 -21 13 -9 -10 16 -32 25 -21 51 -23 39 -2 -5 8 16 14
38 10 4 0 7 4 7 10 0 19 19 -1 76 -84 68 -98 79 -110 69 -79 -3 12 -2 22 3 22
5 0 7 13 4 28 -5 35 22 67 47 56 9 -4 28 -7 42 -6 19 1 28 -5 32 -20 4 -15 11
-19 26 -15 12 3 21 1 21 -3 0 -7 63 -7 103 -1 13 2 -17 28 -42 36 -16 5 -21
12 -18 26 4 13 0 19 -11 20 -11 0 -12 2 -4 6 6 2 12 11 12 19 0 31 71 82 139
99 70 17 141 52 141 69 0 5 3 7 6 4 8 -9 49 33 67 68 9 17 13 34 10 38 -4 3
-1 6 6 6 7 0 10 4 7 8 -2 4 15 30 40 57 53 60 56 74 9 46 -43 -25 -191 -46
-216 -30 -7 4 -21 3 -30 -2 -14 -7 -19 -4 -24 11 -4 11 -10 18 -15 15 -5 -3
-17 3 -27 14 -11 13 -19 17 -24 10 -9 -15 -65 13 -61 30 2 9 -3 11 -13 7 -12
-4 -14 0 -9 18 3 15 -1 29 -13 41 -10 10 -17 20 -15 22 1 2 -1 3 -5 2 -9 -1
-21 30 -22 57 -1 14 5 21 17 20 30 -2 114 27 119 41 3 7 14 13 24 13 25 0 26
40 2 41 -62 2 -139 11 -144 17 -9 9 -21 77 -13 69 4 -3 16 0 28 8 13 10 45 15
88 15 38 0 76 4 86 9 9 6 30 13 46 16 39 8 31 11 -43 18 -35 4 -73 13 -85 20
-11 8 -38 19 -58 26 -41 14 -51 44 -22 65 8 7 16 29 18 50 1 29 10 47 36 73
l35 34 -33 30 c-41 38 -98 155 -85 172 6 7 20 56 33 110 18 78 21 111 15 155
-5 32 -9 85 -10 119 -2 52 -6 66 -25 83 -13 11 -29 20 -37 20 -7 0 -13 4 -13
9 0 5 -11 9 -25 9 -14 0 -25 -4 -25 -9 0 -5 -9 -9 -19 -9 -16 0 -28 16 -36 50
-8 33 -31 60 -49 58 -18 -3 -21 3 -24 45 -2 36 1 47 13 47 8 0 15 9 15 19 0
28 11 52 21 45 5 -3 9 4 9 14 0 21 74 72 104 72 9 0 16 8 16 20 0 11 4 20 9
20 7 0 8 -16 2 -54 0 -4 -8 -6 -16 -2 -8 3 -15 1 -15 -4 0 -6 5 -10 11 -10 8
0 8 -4 2 -12 -24 -31 -22 -47 7 -61 26 -13 29 -13 33 3 3 10 19 26 37 35 32
17 33 17 27 -4 -4 -15 7 -32 39 -65 25 -24 56 -51 69 -60 25 -17 98 -29 89
-15 -3 5 12 9 32 9 26 0 58 12 103 40 82 49 93 58 115 92 10 15 23 25 29 21 6
-4 7 -1 3 6 -5 7 -1 20 7 29 8 9 18 32 22 50 8 40 13 38 19 -9 6 -42 16 -70
33 -87 7 -7 16 -25 19 -40 3 -15 13 -43 22 -62 17 -39 58 -227 72 -333 6 -38
14 -85 19 -105 5 -20 13 -75 17 -122 4 -47 8 -94 10 -105 1 -11 3 -38 4 -60 2
-35 4 -33 11 20 4 33 8 103 9 155 2 90 4 100 43 180 37 75 42 93 41 149 -1 35
-6 80 -12 100 -46 164 -63 226 -78 294 -10 43 -28 92 -41 109 -13 18 -23 39
-24 47 -2 57 -124 230 -194 275 -22 15 -74 51 -115 81 -41 30 -85 60 -98 65
-13 6 -38 21 -56 35 -61 46 -116 64 -216 68 -52 2 -104 2 -115 0z m329 -569
c-20 -8 -4 -42 25 -53 40 -15 70 -45 87 -88 16 -36 30 -53 47 -53 4 0 1 10 -7
23 -8 12 -16 33 -18 47 -2 14 -6 30 -10 35 -9 14 3 30 22 30 8 0 16 9 18 20 2
15 1 17 -7 6 -7 -10 -9 -7 -8 12 2 29 10 33 30 17 7 -6 20 -16 30 -23 14 -10
19 -27 20 -73 2 -50 -2 -65 -23 -91 -14 -18 -29 -32 -33 -32 -4 -1 -18 -10
-30 -22 -42 -40 -80 -53 -150 -54 -63 0 -71 2 -93 28 -32 38 -30 69 9 136 18
31 39 68 47 84 7 15 17 27 21 27 5 0 6 7 3 15 -4 10 0 15 12 14 11 0 14 -3 8
-5z m-378 -79 c1 -8 -1 -15 -5 -15 -14 0 -20 12 -14 26 6 17 16 11 19 -11z
m-119 -227 c-3 -7 -5 -2 -5 12 0 14 2 19 5 13 2 -7 2 -19 0 -25z m-71 -571
c10 4 12 0 8 -11 -3 -9 -14 -15 -23 -14 -10 2 -17 -5 -19 -19 -2 -13 1 -23 6
-23 5 0 12 -9 15 -20 5 -20 -12 -24 -25 -5 -5 6 -8 4 -8 -5 0 -9 14 -21 30
-27 22 -8 28 -16 24 -28 -4 -10 -1 -21 7 -26 11 -7 11 -9 1 -9 -7 0 -10 -5 -7
-10 3 -6 -1 -13 -9 -16 -9 -3 -13 -11 -10 -18 3 -6 -2 -2 -11 9 -14 17 -17 18
-26 5 -7 -11 -8 -8 -3 13 3 15 2 27 -3 27 -5 0 -10 19 -12 42 -1 23 -4 45 -6
49 -3 4 2 9 10 13 8 3 14 16 14 28 -1 17 -3 18 -6 6 -3 -14 -7 -15 -17 -5 -14
12 -10 41 4 32 4 -2 16 4 26 14 14 13 20 15 22 5 2 -7 10 -10 18 -7z m344
-746 c0 -15 -18 -31 -34 -31 -6 0 -46 38 -46 44 0 3 18 6 40 6 33 0 40 -4 40
-19z m-10 -192 c0 -5 -4 -9 -10 -9 -5 0 -10 7 -10 16 0 8 5 12 10 9 6 -3 10
-10 10 -16z m-120 -530 c0 -14 -17 -10 -23 5 -4 10 -1 13 9 9 7 -3 14 -9 14
-14z"/>
<path d="M1310 2994 c0 -8 5 -12 10 -9 6 3 10 10 10 16 0 5 -4 9 -10 9 -5 0
-10 -7 -10 -16z"/>
<path d="M1588 2928 c-5 -14 14 -85 31 -116 6 -11 26 -23 45 -26 32 -6 35 -9
31 -38 -4 -32 12 -57 33 -50 7 2 12 -5 12 -16 0 -13 9 -21 28 -25 15 -3 35 -9
45 -12 12 -5 16 -3 14 6 -2 8 -2 11 0 7 5 -9 85 -11 107 -2 9 3 16 12 16 20 0
8 7 14 15 14 10 0 15 -10 15 -26 0 -24 3 -26 31 -20 17 3 38 6 46 6 10 0 11 4
3 19 -14 28 -12 36 5 21 24 -20 18 5 -9 37 -24 29 -24 29 -5 41 11 7 25 9 32
5 17 -11 97 -21 91 -11 -3 4 0 8 7 8 7 0 0 14 -17 31 -28 30 -98 68 -139 76
-11 2 -21 8 -23 12 -2 5 -22 7 -45 5 -31 -2 -37 -1 -22 6 18 8 18 9 2 9 -10 1
-27 -3 -37 -9 -10 -5 -42 -12 -71 -15 -30 -2 -77 -7 -104 -11 -48 -5 -52 -4
-88 30 -43 40 -44 41 -49 24z m430 -194 c12 -8 22 -20 22 -25 0 -6 -5 -6 -12
1 -7 6 -22 17 -33 25 -11 8 -15 15 -10 15 6 0 21 -7 33 -16z"/>
<path d="M1702 2238 c-25 -25 -14 -39 31 -36 34 2 42 7 42 23 0 15 -8 21 -30
23 -17 2 -36 -3 -43 -10z"/>
<path d="M1620 2096 c0 -7 -3 -27 -6 -43 -9 -44 21 -52 42 -12 15 29 14 31 -7
50 -26 23 -29 23 -29 5z"/>
<path d="M1734 2085 c-4 -8 -10 -12 -15 -10 -5 3 -11 -6 -15 -20 -9 -36 12
-58 48 -50 17 4 28 2 28 -4 0 -18 24 -12 37 9 12 19 8 50 -7 50 -4 0 -17 9
-30 20 -28 24 -39 25 -46 5z"/>
<path d="M1820 1908 c0 -4 7 -8 15 -8 8 0 15 4 15 8 0 5 -7 9 -15 9 -8 0 -15
-4 -15 -9z"/>
<path d="M2143 1645 c-6 -7 -9 -16 -6 -19 4 -3 1 -6 -6 -6 -8 0 -10 -11 -5
-34 7 -38 -13 -174 -28 -193 -5 -7 -7 -17 -3 -23 3 -5 2 -10 -3 -10 -5 0 -15
-26 -21 -58 -6 -33 -27 -85 -47 -118 -77 -124 -104 -173 -104 -182 0 -5 -10
-20 -22 -34 -13 -14 -36 -42 -53 -63 -16 -21 -55 -64 -87 -96 -56 -57 -82 -97
-99 -148 -4 -14 -19 -57 -33 -95 -23 -62 -25 -76 -16 -124 8 -44 7 -60 -7 -90
-31 -69 -44 -107 -52 -152 -27 -138 -33 -167 -37 -183 -5 -16 0 -18 42 -15
l48 3 18 70 c9 39 28 106 41 150 21 66 26 75 28 50 4 -26 12 -15 64 90 33 65
62 123 63 127 2 4 -4 8 -13 8 -9 0 -13 5 -10 10 3 6 17 7 31 4 20 -5 24 -2 25
17 2 38 3 42 28 89 26 48 61 98 101 141 47 51 70 81 70 90 0 17 -12 9 -56 -38
-28 -30 -39 -37 -28 -20 13 22 15 33 6 52 -7 15 -8 26 -2 30 6 4 10 1 10 -5 0
-6 4 -8 10 -5 6 4 7 -1 3 -12 -6 -16 -5 -16 10 -4 9 7 17 20 17 28 0 7 7 16
15 19 8 4 15 14 14 23 0 9 -3 11 -5 5 -7 -16 -53 26 -47 42 6 16 53 47 60 40
3 -3 0 -12 -7 -20 -10 -13 -9 -18 3 -30 8 -8 17 -13 20 -10 3 3 15 -1 26 -8
18 -11 23 -11 31 2 5 8 10 10 10 4 0 -19 30 -25 46 -10 8 8 14 19 14 25 0 6 7
11 15 11 8 0 15 5 15 11 0 5 -6 7 -12 4 -7 -4 -5 0 6 9 10 8 15 19 12 24 -6
11 21 25 33 17 4 -2 8 2 8 10 0 8 -4 15 -9 15 -5 0 -3 6 4 14 7 8 16 12 19 10
8 -4 19 19 25 53 3 17 -2 23 -28 31 -77 23 -76 24 -89 -28 -8 -32 -17 -46 -25
-43 -9 3 -11 15 -7 34 7 36 -2 70 -25 97 -15 17 -18 33 -15 74 3 29 9 67 14
84 19 61 26 140 20 205 -5 52 -9 64 -18 54z"/>
<path d="M2736 1461 c-4 -6 -3 -11 2 -11 6 0 12 -6 15 -14 4 -10 0 -12 -15 -8
-11 3 -24 -1 -29 -9 -7 -11 -9 -11 -9 -1 0 9 -5 10 -19 3 -10 -6 -21 -8 -24
-5 -3 4 -18 -6 -32 -20 l-26 -26 26 -10 c44 -17 87 -22 170 -22 73 1 82 -2
108 -26 l28 -27 -2 53 c-2 36 -7 52 -16 52 -8 0 -11 5 -8 10 3 6 -1 10 -9 10
-9 0 -16 5 -16 11 0 5 -4 8 -8 5 -5 -3 -18 3 -28 13 -11 9 -25 16 -32 13 -6
-2 -12 1 -12 7 0 15 -27 14 -33 -1 -4 -10 -8 -10 -15 1 -7 9 -12 10 -16 2z"/>
<path d="M2420 1413 c0 -10 61 -95 87 -121 11 -11 13 -6 13 31 0 32 -6 49 -22
65 -25 23 -78 40 -78 25z"/>
<path d="M2405 1189 c-7 -22 1 -99 17 -152 14 -46 49 -67 113 -67 25 0 45 3
45 6 0 7 -60 109 -104 176 -34 52 -62 67 -71 37z"/>
<path d="M2076 901 c-10 -11 -16 -26 -13 -33 3 -9 7 -7 13 7 4 11 12 23 18 27
6 4 8 9 5 13 -3 3 -14 -4 -23 -14z"/>
<path d="M0 529 c0 -8 7 -24 15 -35 18 -24 19 -7 0 26 -9 16 -14 19 -15 9z"/>
<path d="M1486 494 c-3 -7 14 -45 37 -85 39 -69 62 -80 37 -19 -7 16 -10 36
-7 44 3 7 -3 27 -13 43 -18 31 -46 39 -54 17z"/>
<path d="M75 483 c5 -27 65 -139 65 -122 0 8 -7 27 -15 43 -8 15 -15 35 -15
42 0 8 -4 14 -10 14 -5 0 -10 6 -10 14 0 8 -4 17 -9 21 -6 3 -8 -2 -6 -12z"/>
<path d="M241 424 c0 -11 3 -14 6 -6 3 7 2 16 -1 19 -3 4 -6 -2 -5 -13z"/>
<path d="M230 320 c0 -27 -4 -50 -9 -50 -5 0 -6 -29 -3 -65 3 -46 1 -65 -7
-65 -8 0 -9 -5 -1 -19 5 -11 10 -42 10 -70 0 -49 1 -51 28 -51 l28 0 -7 58
c-4 31 -13 77 -20 102 -7 25 -11 82 -10 128 1 45 0 82 -3 82 -3 0 -6 -22 -6
-50z"/>
<path d="M687 135 c2 -7 -2 -19 -10 -26 -7 -8 -21 -35 -30 -61 l-16 -48 25 0
c20 0 24 5 24 28 0 15 4 32 9 37 16 18 21 82 6 82 -7 0 -11 -6 -8 -12z"/>
</g>
</svg>
