<?xml version="1.0" standalone="no"?>
<!DOCTYPE svg PUBLIC "-//W3C//DTD SVG 20010904//EN"
 "http://www.w3.org/TR/2001/REC-SVG-20010904/DTD/svg10.dtd">
<svg version="1.0" xmlns="http://www.w3.org/2000/svg"
 width="580.000000pt" height="386.000000pt" viewBox="0 0 580.000000 386.000000"
 preserveAspectRatio="xMidYMid meet">

<g transform="translate(0.000000,386.000000) scale(0.100000,-0.100000)"
fill="#000000" stroke="none">
<path d="M3052 3148 c-121 -18 -239 -113 -283 -226 -34 -87 -32 -207 5 -289
35 -77 112 -153 193 -191 49 -23 72 -27 148 -27 82 0 97 3 157 33 84 41 158
120 189 200 28 73 30 196 4 262 -67 170 -234 266 -413 238z"/>
<path d="M2072 2440 c-18 -11 -39 -36 -48 -57 -9 -21 -22 -51 -30 -66 -13 -27
-12 -33 22 -98 20 -38 42 -69 48 -69 6 0 20 7 30 15 11 8 33 15 49 15 40 0 94
27 117 60 26 37 29 119 6 155 -41 62 -131 83 -194 45z"/>
<path d="M2948 2333 c-32 -2 -58 -7 -58 -11 0 -4 44 -144 98 -311 l98 -305 29
0 28 0 99 308 c54 170 97 310 95 313 -6 6 -324 11 -389 6z"/>
<path d="M2780 2308 c-25 -5 -80 -18 -122 -30 l-77 -20 5 -46 c2 -26 13 -186
24 -357 11 -170 25 -371 30 -445 5 -74 16 -247 25 -385 9 -137 18 -265 21
-282 l5 -33 424 0 424 0 5 43 c3 23 10 116 16 207 5 91 26 399 45 684 19 285
35 541 35 567 l0 48 -53 15 c-52 15 -190 46 -206 46 -4 0 -15 -26 -25 -57 -10
-32 -53 -169 -97 -304 -43 -135 -79 -248 -79 -251 0 -3 23 -3 50 0 l50 5 0
-227 0 -226 -165 0 -165 0 2 223 3 222 48 -1 c30 0 46 3 44 10 -2 6 -46 145
-98 309 -70 220 -98 297 -109 296 -8 -1 -35 -5 -60 -11z"/>
<path d="M1818 2257 c-54 -29 -98 -57 -98 -62 0 -10 292 -670 328 -741 33 -64
60 -81 127 -76 33 3 410 295 410 318 0 65 -30 474 -34 474 -3 0 -76 -64 -161
-141 -191 -174 -196 -177 -217 -156 -9 9 -67 110 -129 224 -61 114 -116 208
-120 210 -5 1 -53 -21 -106 -50z"/>
<path d="M3647 1765 l-27 -414 29 -53 c15 -29 72 -138 126 -243 53 -104 99
-192 100 -193 4 -5 265 137 265 144 0 9 -453 1159 -459 1166 -4 4 -19 -179
-34 -407z"/>
<path d="M1691 2026 l-33 -34 33 -41 c19 -22 36 -41 39 -41 3 0 17 8 32 18
l26 17 -23 55 c-13 30 -27 56 -32 57 -5 2 -24 -12 -42 -31z"/>
<path d="M3060 1578 l0 -58 55 0 55 0 0 59 0 58 -55 -1 -55 -1 0 -57z"/>
</g>
</svg>
