<?xml version="1.0" standalone="no"?>
<!DOCTYPE svg PUBLIC "-//W3C//DTD SVG 20010904//EN"
 "http://www.w3.org/TR/2001/REC-SVG-20010904/DTD/svg10.dtd">
<svg version="1.0" xmlns="http://www.w3.org/2000/svg"
 width="208.000000pt" height="243.000000pt" viewBox="0 0 208.000000 243.000000"
 preserveAspectRatio="xMidYMid meet">

<g transform="translate(0.000000,243.000000) scale(0.100000,-0.100000)"
fill="#000000" stroke="none">
<path d="M1080 2424 c-19 -2 -95 -14 -168 -26 -97 -16 -131 -26 -128 -35 7
-18 -9 -16 -54 7 -22 11 -42 20 -46 20 -11 0 3 -76 20 -111 20 -40 20 -40 0
-32 -13 5 -15 2 -10 -14 4 -12 -3 -37 -18 -64 -13 -24 -29 -72 -34 -107 -9
-63 -9 -64 16 -73 33 -13 49 -34 63 -84 l11 -40 18 35 c10 19 25 71 35 115 27
127 20 118 65 95 129 -66 297 -66 444 -2 59 27 56 27 56 -2 0 -48 76 -207 99
-206 3 0 14 19 25 41 10 22 29 46 43 52 23 10 24 15 18 56 -4 25 -17 74 -30
110 -13 36 -25 90 -28 119 -5 65 -30 94 -103 122 -52 19 -215 33 -294 24z"/>
<path d="M796 1270 c-28 -13 -77 -20 -162 -25 -130 -8 -168 -21 -197 -67 -71
-114 -428 -777 -433 -803 -10 -54 24 -118 78 -144 24 -11 54 -21 66 -21 17 0
242 34 370 56 l34 5 -7 -133 -7 -133 557 0 558 0 -7 230 c-3 128 -2 221 3 210
4 -11 30 -113 56 -227 l48 -208 159 0 c108 0 158 3 158 11 0 11 -75 325 -205
857 -89 362 -88 361 -303 365 -108 2 -134 6 -172 25 -24 12 -47 18 -51 14 -3
-4 -28 -104 -54 -223 -47 -210 -48 -216 -69 -206 -22 10 -22 11 -3 49 27 53
16 102 -31 145 -28 26 -44 33 -76 33 -98 0 -161 -98 -118 -182 19 -37 19 -38
1 -38 -14 0 -19 -7 -20 -27 0 -25 -1 -26 -9 -8 -4 11 -29 112 -55 225 -56 244
-55 240 -63 239 -4 0 -25 -9 -46 -19z m330 -462 l7 -33 14 33 c7 17 18 32 23
32 13 0 13 2 -6 -53 -20 -59 -40 -60 -56 -3 -9 34 -15 42 -30 38 -13 -3 -18
-14 -18 -38 0 -18 -4 -36 -10 -39 -6 -4 -10 10 -10 34 0 31 -4 41 -16 41 -8 0
-12 5 -9 10 3 6 28 10 55 10 46 0 49 -1 56 -32z m-577 -238 c-14 -9 -101 -22
-107 -16 -2 3 22 52 54 111 l59 106 3 -97 c2 -66 -1 -100 -9 -104z m462 135
c1 -8 3 -19 4 -25 1 -5 3 -16 4 -24 1 -11 18 -14 76 -13 l74 2 6 38 c4 20 13
37 20 37 10 0 11 -9 5 -36 -5 -19 -11 -38 -14 -41 -3 -3 8 -21 24 -40 17 -18
30 -41 30 -50 0 -9 -17 -49 -37 -89 -40 -78 -42 -79 -134 -90 l-55 -6 -17 113
c-10 63 -20 122 -23 132 -4 12 0 17 14 17 19 0 19 2 6 45 -11 39 -11 45 1 45
8 0 16 -7 16 -15z"/>
</g>
</svg>
