<?xml version="1.0" encoding="UTF-8"?>
<svg xmlns="http://www.w3.org/2000/svg" xmlns:xlink="http://www.w3.org/1999/xlink" width="920px" height="920px" viewBox="0 0 920 920" version="1.1">
<g id="surface1">
<path style=" stroke:none;fill-rule:nonzero;fill:rgb(0%,0%,0%);fill-opacity:1;" d="M 467.023438 274.480469 L 467.023438 274.460938 C 466.949219 274.460938 466.890625 274.472656 466.808594 274.472656 L 466.808594 274.460938 C 466.785156 274.460938 466.746094 274.460938 466.722656 274.472656 C 466.679688 274.460938 466.652344 274.460938 466.613281 274.460938 L 466.613281 274.472656 C 466.53125 274.472656 466.484375 274.460938 466.414062 274.460938 L 466.414062 274.480469 C 419 275.742188 389.894531 302.574219 390.378906 349.53125 C 391.09375 417.183594 419.601562 458.230469 466.484375 457.511719 L 466.484375 457.53125 C 466.527344 457.53125 466.5625 457.53125 466.613281 457.53125 C 466.632812 457.53125 466.65625 457.53125 466.699219 457.53125 C 466.699219 457.53125 466.703125 457.53125 466.726562 457.53125 L 466.746094 457.53125 C 466.777344 457.53125 466.792969 457.53125 466.808594 457.53125 C 466.859375 457.53125 466.898438 457.53125 466.9375 457.53125 L 466.9375 457.511719 C 513.820312 458.230469 542.339844 417.183594 543.058594 349.53125 C 543.539062 302.582031 514.429688 275.746094 467.023438 274.480469 Z M 467.023438 274.480469 "/>
<path style=" stroke:none;fill-rule:nonzero;fill:rgb(0%,0%,0%);fill-opacity:1;" d="M 232.664062 733.425781 C 226.464844 730.457031 218.742188 728.777344 211.496094 728.777344 C 192.628906 728.777344 180.917969 740.011719 180.917969 758.050781 L 180.917969 774.414062 L 173.832031 774.414062 C 170.960938 774.414062 168.640625 776.75 168.640625 779.625 L 168.640625 790.328125 C 168.640625 793.179688 170.960938 795.511719 173.832031 795.511719 L 180.917969 795.511719 L 180.917969 836.117188 C 180.917969 839 183.234375 841.328125 186.105469 841.328125 L 206.453125 841.328125 C 209.320312 841.328125 211.640625 838.996094 211.640625 836.117188 L 211.640625 795.671875 L 229.527344 795.671875 C 232.382812 795.671875 234.714844 793.34375 234.714844 790.484375 L 234.714844 779.625 C 234.714844 776.746094 232.382812 774.414062 229.527344 774.414062 L 211.640625 774.414062 L 211.640625 762.488281 C 211.640625 756.710938 213.632812 754.128906 218.121094 754.128906 L 218.433594 754.132812 C 220.308594 754.132812 222.496094 754.59375 225.214844 755.523438 C 226.566406 755.953125 228.054688 755.847656 229.3125 755.203125 C 230.582031 754.527344 231.519531 753.375 231.902344 752.023438 L 235.4375 739.539062 C 236.128906 737.082031 234.960938 734.496094 232.664062 733.425781 Z M 232.664062 733.425781 "/>
<path style=" stroke:none;fill-rule:nonzero;fill:rgb(0%,0%,0%);fill-opacity:1;" d="M 790.992188 5.957031 C 720.113281 5.957031 662.453125 63.605469 662.453125 134.480469 C 662.453125 161.984375 671.171875 187.472656 685.9375 208.40625 L 628.480469 265.863281 C 585.710938 227 528.945312 203.292969 466.742188 203.292969 C 400.902344 203.292969 341.167969 229.863281 297.664062 272.828125 L 239.117188 224.445312 C 250.511719 205.257812 257.085938 182.890625 257.085938 158.996094 C 257.085938 88.128906 199.421875 30.472656 128.546875 30.472656 C 57.667969 30.472656 0 88.125 0 158.996094 C 0 229.878906 57.660156 287.550781 128.539062 287.550781 C 162.210938 287.550781 192.882812 274.515625 215.824219 253.253906 L 273.359375 300.800781 C 243.613281 340.855469 225.992188 390.417969 225.992188 444.035156 C 225.992188 519.972656 261.335938 587.789062 316.421875 631.945312 L 275.039062 679.007812 C 254.375 664.824219 229.394531 656.5 202.5 656.5 C 131.621094 656.5 73.960938 714.183594 73.960938 785.058594 C 73.960938 855.925781 131.621094 913.582031 202.5 913.582031 C 273.378906 913.582031 331.042969 855.933594 331.042969 785.058594 C 331.042969 754.414062 320.242188 726.242188 302.273438 704.125 L 347.246094 652.980469 C 382.476562 673.214844 423.277344 684.785156 466.742188 684.785156 C 599.492188 684.785156 707.484375 576.792969 707.484375 444.035156 C 707.484375 386.792969 687.402344 334.171875 653.914062 292.808594 L 711.410156 235.308594 C 733.320312 252.644531 760.960938 263.035156 790.996094 263.035156 C 861.875 263.035156 919.535156 205.351562 919.535156 134.480469 C 919.535156 63.605469 861.871094 5.957031 790.992188 5.957031 Z M 202.496094 879.828125 C 150.238281 879.828125 107.710938 837.308594 107.710938 785.0625 C 107.710938 732.785156 150.238281 690.289062 202.496094 690.289062 C 254.757812 690.289062 297.269531 732.792969 297.269531 785.0625 C 297.269531 837.304688 254.753906 879.828125 202.496094 879.828125 Z M 128.535156 253.769531 C 76.277344 253.769531 33.75 211.277344 33.75 158.996094 C 33.75 106.757812 76.277344 64.234375 128.535156 64.234375 C 180.796875 64.234375 223.304688 106.757812 223.304688 158.996094 C 223.308594 211.277344 180.796875 253.769531 128.535156 253.769531 Z M 623.445312 561.382812 C 620.085938 537.589844 613.949219 513.726562 601.757812 508.875 L 525.492188 478.476562 L 507.628906 463.433594 C 502.910156 459.4375 495.945312 459.726562 491.570312 464.082031 L 466.742188 488.78125 L 441.847656 464.070312 C 437.472656 459.726562 430.515625 459.453125 425.796875 463.429688 L 407.941406 478.472656 L 331.675781 508.878906 C 319.496094 513.734375 313.359375 537.582031 310.015625 561.375 C 285.453125 528.648438 270.878906 488.011719 270.878906 444.03125 C 270.878906 336.042969 358.738281 248.175781 466.738281 248.175781 C 574.734375 248.175781 662.585938 336.046875 662.585938 444.03125 C 662.585938 488.019531 648.015625 528.652344 623.445312 561.382812 Z M 790.992188 229.25 C 738.734375 229.25 696.222656 186.75 696.222656 134.480469 C 696.222656 82.234375 738.734375 39.710938 790.992188 39.710938 C 843.25 39.710938 885.773438 82.234375 885.773438 134.480469 C 885.773438 186.75 843.25 229.25 790.992188 229.25 Z M 790.992188 229.25 "/>
<path style=" stroke:none;fill-rule:nonzero;fill:rgb(0%,0%,0%);fill-opacity:1;" d="M 820.398438 167.515625 C 820.011719 166.164062 819.078125 165.011719 817.816406 164.332031 C 816.550781 163.691406 815.082031 163.585938 813.730469 164.015625 C 811 164.945312 808.804688 165.402344 806.929688 165.402344 L 806.621094 165.410156 C 802.148438 165.410156 800.152344 162.828125 800.152344 157.050781 L 800.152344 123.851562 L 818.023438 123.851562 C 820.898438 123.851562 823.214844 121.519531 823.214844 118.636719 L 823.214844 107.78125 C 823.214844 104.921875 820.898438 102.601562 818.023438 102.601562 L 800.152344 102.601562 L 800.152344 83.417969 C 800.152344 80.539062 797.816406 78.234375 794.957031 78.234375 L 774.601562 78.234375 C 771.738281 78.234375 769.410156 80.535156 769.410156 83.417969 L 769.410156 102.75 L 762.335938 102.75 C 759.460938 102.75 757.136719 105.085938 757.136719 107.933594 L 757.136719 118.632812 C 757.136719 121.519531 759.464844 123.851562 762.335938 123.851562 L 769.414062 123.851562 L 769.414062 161.480469 C 769.414062 179.523438 781.125 190.753906 799.988281 190.753906 C 807.25 190.753906 814.964844 189.082031 821.175781 186.105469 C 823.464844 185.035156 824.628906 182.449219 823.941406 180.03125 Z M 820.398438 167.515625 "/>
<path style=" stroke:none;fill-rule:nonzero;fill:rgb(0%,0%,0%);fill-opacity:1;" d="M 166.019531 103.386719 L 148.34375 103.386719 C 145.472656 103.386719 143.15625 105.714844 143.15625 108.566406 L 143.15625 110.988281 C 137.691406 105.402344 130.257812 102.480469 121.433594 102.480469 L 120.96875 102.484375 C 100.289062 102.484375 85.867188 118.550781 85.867188 141.546875 C 85.867188 165.0625 100.511719 181.464844 121.5 181.464844 C 130.296875 181.464844 137.710938 178.546875 143.15625 172.992188 L 143.15625 177.949219 C 143.15625 187.4375 136.277344 193.089844 124.761719 193.089844 C 117.761719 193.089844 110.621094 191.121094 104.136719 187.4375 C 102.902344 186.734375 101.4375 186.582031 100.082031 186.972656 C 98.730469 187.359375 97.578125 188.332031 96.9375 189.570312 L 91.636719 199.925781 C 90.375 202.390625 91.261719 205.417969 93.644531 206.808594 C 103.375 212.433594 115.09375 215.527344 126.675781 215.527344 C 153.304688 215.527344 171.207031 200.125 171.207031 177.21875 L 171.207031 108.566406 C 171.207031 105.714844 168.878906 103.386719 166.019531 103.386719 Z M 127.875 160.382812 C 118.550781 160.382812 112.300781 153.105469 112.300781 142.285156 C 112.300781 131.367188 118.550781 124.050781 127.875 124.050781 C 137.011719 124.050781 143.15625 131.367188 143.15625 142.285156 C 143.15625 153.105469 137.011719 160.382812 127.875 160.382812 Z M 127.875 160.382812 "/>
</g>
</svg>
