<?xml version="1.0" standalone="no"?>
<!DOCTYPE svg PUBLIC "-//W3C//DTD SVG 20010904//EN"
 "http://www.w3.org/TR/2001/REC-SVG-20010904/DTD/svg10.dtd">
<svg version="1.0" xmlns="http://www.w3.org/2000/svg"
 width="490.000000pt" height="490.000000pt" viewBox="0 0 490.000000 490.000000"
 preserveAspectRatio="xMidYMid meet">

<g transform="translate(0.000000,490.000000) scale(0.100000,-0.100000)"
fill="#000000" stroke="none">
<path d="M636 3874 c-14 -14 -16 -135 -16 -1188 0 -1105 1 -1174 17 -1188 16
-14 146 -16 1083 -19 586 -2 1395 -3 1798 -1 717 2 732 2 752 22 20 20 20 33
20 1183 0 1036 -2 1165 -16 1185 l-15 22 -1804 0 c-1626 0 -1805 -2 -1819 -16z
m3409 -1189 l0 -970 -1584 -3 c-872 -1 -1589 2 -1593 6 -9 9 -12 1918 -2 1933
3 5 629 8 1592 7 l1587 -3 0 -970z m-1553 -1070 c10 -22 9 -29 -10 -47 -18
-19 -25 -20 -47 -10 -18 9 -25 19 -25 41 0 31 10 39 48 40 15 1 26 -8 34 -24z"/>
<path d="M2531 3148 c-24 -84 -67 -241 -97 -348 -81 -288 -194 -692 -200 -713
-5 -16 0 -18 46 -15 l52 3 28 95 c68 232 310 1108 310 1121 0 5 -22 9 -48 9
l-48 0 -43 -152z"/>
<path d="M1880 2977 c-118 -51 -290 -124 -382 -162 l-167 -70 -1 -66 0 -67 68
-27 c37 -14 85 -35 107 -45 56 -27 604 -260 610 -260 11 0 4 118 -7 128 -12 9
-373 162 -383 162 -2 0 -28 11 -57 24 -29 13 -80 35 -112 48 -33 13 -61 29
-63 34 -2 6 11 17 29 24 52 21 219 90 263 109 22 10 106 44 187 77 l148 59 0
63 c0 43 -4 62 -12 61 -7 0 -110 -42 -228 -92z"/>
<path d="M2790 3007 l0 -63 283 -117 c155 -64 295 -121 310 -127 58 -21 66
-17 -443 -227 l-145 -60 -3 -68 c-2 -52 0 -66 10 -62 47 21 617 264 678 289
98 41 100 43 100 92 0 68 -8 79 -63 103 -29 12 -117 50 -197 84 -80 33 -158
67 -175 74 -16 7 -70 30 -120 50 -49 21 -120 51 -157 66 -36 16 -69 29 -72 29
-3 0 -6 -28 -6 -63z"/>
</g>
</svg>
