<?xml version="1.0" standalone="no"?>
<!DOCTYPE svg PUBLIC "-//W3C//DTD SVG 20010904//EN"
 "http://www.w3.org/TR/2001/REC-SVG-20010904/DTD/svg10.dtd">
<svg version="1.0" xmlns="http://www.w3.org/2000/svg"
 width="920.000000pt" height="920.000000pt" viewBox="0 0 920.000000 920.000000"
 preserveAspectRatio="xMidYMid meet">

<g transform="translate(0.000000,920.000000) scale(0.100000,-0.100000)"
fill="#000000" stroke="none">
<path d="M1214 7291 c-17 -11 -36 -34 -43 -52 -8 -23 -11 -614 -11 -2201 0
-2318 -2 -2199 46 -2239 29 -24 2843 -36 5395 -22 1508 9 1403 4 1435 64 12
24 14 334 14 2204 0 2392 5 2217 -60 2250 -26 13 -405 15 -3387 15 -3283 0
-3359 -1 -3389 -19z m6388 -2239 c2 -988 -1 -1805 -5 -1814 -7 -17 -159 -18
-2992 -18 -2833 0 -2985 1 -2992 18 -4 9 -7 828 -5 1819 l2 1803 2978 2 c1637
2 2985 -1 2994 -5 17 -7 18 -106 20 -1805z m-2962 -1977 c76 -39 63 -140 -20
-159 -33 -8 -87 25 -96 59 -10 40 4 74 39 95 39 24 40 24 77 5z"/>
<path d="M4830 6195 c0 -7 -26 -102 -100 -365 -40 -140 -81 -284 -90 -320 -37
-136 -111 -399 -136 -480 -9 -30 -20 -71 -24 -90 -4 -19 -22 -84 -40 -145 -17
-60 -42 -148 -55 -195 -13 -47 -37 -130 -53 -185 -17 -55 -38 -131 -47 -170
-9 -38 -25 -95 -35 -125 -35 -108 -62 -219 -55 -229 8 -14 150 -14 176 -1 10
6 19 17 19 25 0 13 23 98 76 280 8 28 26 91 39 140 13 50 43 155 65 235 23 80
50 177 60 215 11 39 33 117 50 175 17 58 42 146 55 195 42 159 83 308 105 380
28 95 51 174 60 210 24 91 65 243 91 331 16 56 29 107 29 113 0 7 -33 11 -95
11 -52 0 -95 -2 -95 -5z"/>
<path d="M3930 5758 c-89 -40 -138 -61 -193 -84 -34 -14 -82 -35 -107 -46 -25
-12 -90 -39 -145 -60 -55 -22 -167 -69 -250 -105 -82 -36 -186 -80 -230 -99
-466 -195 -499 -211 -506 -235 -4 -13 -7 -65 -8 -115 -1 -75 2 -93 17 -106 15
-13 53 -30 218 -97 28 -11 82 -34 120 -51 84 -38 79 -36 242 -104 73 -31 152
-65 175 -75 23 -10 85 -37 137 -59 52 -22 147 -63 210 -90 63 -28 144 -62 180
-77 36 -15 74 -32 85 -38 33 -18 89 -37 95 -31 3 3 7 50 8 105 5 118 -3 135
-74 163 -71 27 -321 130 -379 156 -11 5 -42 18 -70 28 -52 20 -240 98 -380
157 -44 18 -122 51 -174 72 -51 21 -96 44 -99 51 -6 18 13 35 63 54 22 9 85
35 140 58 55 23 183 75 285 116 102 41 199 81 215 89 17 8 80 34 140 58 61 24
161 65 223 92 l112 47 0 119 c0 127 -1 128 -50 107z"/>
<path d="M5246 5762 c-2 -4 -6 -57 -7 -117 -1 -103 0 -109 22 -126 13 -10 29
-19 35 -19 6 0 76 -27 155 -61 145 -61 425 -176 509 -209 25 -10 121 -50 214
-89 93 -39 175 -71 182 -71 6 0 22 -8 35 -19 31 -25 17 -42 -59 -72 -31 -12
-75 -30 -97 -39 -22 -10 -80 -34 -130 -55 -49 -20 -103 -43 -120 -50 -84 -37
-223 -95 -229 -95 -3 0 -25 -9 -49 -19 -64 -29 -235 -101 -241 -101 -3 0 -29
-11 -58 -24 -29 -13 -73 -31 -98 -41 -71 -27 -70 -25 -70 -156 0 -66 2 -119 5
-119 2 0 34 13 69 30 36 16 94 41 128 56 35 14 81 34 103 45 22 10 69 29 105
44 36 14 108 44 160 67 52 23 109 47 125 54 47 19 194 83 256 110 31 13 59 24
62 24 3 0 43 17 89 38 45 21 106 48 133 60 28 11 91 38 140 60 l90 38 0 123 0
123 -95 40 c-52 22 -135 57 -185 78 -49 21 -124 53 -165 70 -41 17 -88 37
-105 45 -16 7 -75 32 -130 55 -55 23 -113 48 -130 55 -33 14 -85 36 -275 115
-69 29 -163 69 -210 90 -47 21 -96 41 -110 45 -14 4 -30 12 -37 17 -6 5 -14 5
-17 0z"/>
</g>
</svg>
