<?xml version="1.0" standalone="no"?>
<!DOCTYPE svg PUBLIC "-//W3C//DTD SVG 20010904//EN"
 "http://www.w3.org/TR/2001/REC-SVG-20010904/DTD/svg10.dtd">
<svg version="1.0" xmlns="http://www.w3.org/2000/svg"
 width="360.000000pt" height="360.000000pt" viewBox="0 0 360.000000 360.000000"
 preserveAspectRatio="xMidYMid meet">

<g transform="translate(0.000000,360.000000) scale(0.100000,-0.100000)"
fill="#000000" stroke="none">
<path d="M470 2850 c-13 -8 -15 -117 -18 -867 -2 -700 0 -862 11 -877 13 -17
71 -18 1335 -18 1025 0 1326 3 1337 12 13 11 15 129 15 874 0 657 -3 865 -12
874 -15 15 -2644 17 -2668 2z m2505 -875 l0 -710 -1172 -3 -1173 -2 0 715 0
715 1173 -2 1172 -3 0 -710z m-1151 -781 c20 -19 20 -28 1 -44 -21 -18 -55 -3
-55 25 0 21 10 32 32 34 4 1 14 -6 22 -15z"/>
<path d="M1862 2323 c-17 -60 -59 -207 -93 -328 -34 -121 -76 -274 -95 -340
-19 -65 -34 -123 -34 -127 0 -4 17 -8 38 -8 37 0 39 2 49 43 6 23 34 125 63
227 29 102 60 214 70 250 10 36 36 131 59 212 23 81 41 154 41 163 0 10 -10
15 -34 15 l-33 0 -31 -107z"/>
<path d="M1470 2226 c-41 -19 -164 -71 -274 -117 -109 -45 -205 -89 -212 -97
-8 -7 -14 -31 -14 -51 0 -37 2 -39 53 -61 28 -12 66 -28 82 -35 166 -73 434
-185 443 -185 13 0 17 68 4 85 -4 6 -106 51 -226 101 -121 50 -221 95 -223
101 -2 6 10 16 27 21 17 6 120 48 230 94 l200 83 0 48 c0 26 -3 47 -7 47 -5 0
-42 -16 -83 -34z"/>
<path d="M2052 2209 l3 -51 170 -70 c94 -38 193 -78 220 -89 28 -11 54 -24 58
-28 4 -4 -95 -50 -220 -103 l-228 -95 -3 -51 -3 -51 93 41 c51 22 112 49 136
59 24 11 76 33 115 49 40 16 108 45 152 64 l80 35 0 48 0 47 -85 37 c-47 21
-161 70 -255 109 -93 40 -185 79 -203 87 l-33 14 3 -52z"/>
</g>
</svg>
