<?xml version="1.0" standalone="no"?>
<!DOCTYPE svg PUBLIC "-//W3C//DTD SVG 20010904//EN"
 "http://www.w3.org/TR/2001/REC-SVG-20010904/DTD/svg10.dtd">
<svg version="1.0" xmlns="http://www.w3.org/2000/svg"
 width="920.000000pt" height="920.000000pt" viewBox="0 0 920.000000 920.000000"
 preserveAspectRatio="xMidYMid meet">

<g transform="translate(0.000000,920.000000) scale(0.100000,-0.100000)"
fill="#000000" stroke="none">
<path d="M7029 7850 c-65 -19 -111 -73 -124 -142 l-7 -38 -322 0 c-176 0
-1007 -3 -1846 -6 -1467 -6 -1528 -7 -1604 -26 -150 -37 -295 -128 -390 -246
-31 -38 -101 -152 -157 -253 -119 -216 -346 -629 -468 -851 l-86 -158 -481 0
c-475 0 -483 0 -576 -24 -155 -39 -272 -109 -379 -224 -78 -84 -150 -216 -178
-327 -21 -81 -21 -87 -19 -1745 l3 -1665 27 -80 c78 -230 263 -415 493 -493
l80 -27 2455 0 2455 0 80 28 c257 90 449 301 510 559 9 41 15 116 15 211 l0
147 388 0 387 0 475 -475 474 -474 288 -3 288 -3 0 2108 0 2107 -283 0 -282 0
-480 -480 -480 -480 -387 0 -388 0 0 343 c0 312 -2 350 -20 420 -38 145 -113
271 -220 369 -92 86 -177 135 -312 181 -17 6 -18 34 -18 402 l0 395 479 0 478
0 7 -38 c8 -55 44 -104 96 -129 44 -23 48 -23 485 -23 493 0 523 3 646 66 183
91 299 286 299 500 0 109 -14 175 -54 259 -58 121 -145 209 -263 266 -112 54
-170 59 -636 58 -232 0 -434 -4 -448 -9z m-1849 -1335 l0 -385 -1140 0 c-730
0 -1140 3 -1140 10 0 5 93 178 207 385 l207 375 933 0 933 0 0 -385z m-960
-2685 l0 -960 -1342 2 -1343 3 -3 958 -2 957 1345 0 1345 0 0 -960z"/>
</g>
</svg>
