<?xml version="1.0" standalone="no"?>
<!DOCTYPE svg PUBLIC "-//W3C//DTD SVG 20010904//EN"
 "http://www.w3.org/TR/2001/REC-SVG-20010904/DTD/svg10.dtd">
<svg version="1.0" xmlns="http://www.w3.org/2000/svg"
 width="490.000000pt" height="490.000000pt" viewBox="0 0 490.000000 490.000000"
 preserveAspectRatio="xMidYMid meet">

<g transform="translate(0.000000,490.000000) scale(0.100000,-0.100000)"
fill="#000000" stroke="none">
<path d="M3712 4165 c-12 -9 -25 -30 -30 -48 l-8 -32 -1000 -5 c-1104 -6
-1029 -1 -1128 -70 -76 -52 -113 -106 -291 -430 l-173 -315 -283 -5 c-309 -6
-325 -9 -413 -69 -61 -42 -104 -95 -140 -171 l-31 -65 0 -915 0 -915 32 -67
c57 -120 166 -204 294 -228 37 -7 488 -10 1335 -8 l1279 3 67 32 c161 76 248
221 248 414 l0 59 208 0 207 0 255 -255 255 -255 147 0 148 0 0 1120 0 1120
-148 0 -147 0 -255 -255 -255 -255 -207 0 -208 0 0 158 c0 87 -5 185 -11 217
-24 129 -111 242 -231 298 l-68 32 0 213 0 212 256 -2 256 -3 12 -35 c7 -24
22 -41 46 -53 31 -16 60 -18 280 -15 l245 3 66 32 c140 69 201 220 152 374
-23 72 -107 158 -177 182 -71 24 -550 25 -584 2z m-952 -695 l0 -210 -610 0
c-335 0 -610 3 -610 7 0 3 50 98 111 210 l111 203 499 0 499 0 0 -210z m-510
-1430 l0 -510 -715 0 -715 0 0 510 0 510 715 0 715 0 0 -510z"/>
</g>
</svg>
