<?xml version="1.0" standalone="no"?>
<!DOCTYPE svg PUBLIC "-//W3C//DTD SVG 20010904//EN"
 "http://www.w3.org/TR/2001/REC-SVG-20010904/DTD/svg10.dtd">
<svg version="1.0" xmlns="http://www.w3.org/2000/svg"
 width="490.000000pt" height="490.000000pt" viewBox="0 0 490.000000 490.000000"
 preserveAspectRatio="xMidYMid meet">
<metadata>
Created by potrace 1.16, written by Peter Selinger 2001-2019
</metadata>
<g transform="translate(0.000000,490.000000) scale(0.100000,-0.100000)"
fill="#000000" stroke="none">
<path d="M2400 4550 c-25 -9 -54 -20 -65 -24 -49 -19 -72 -34 -110 -71 -48
-48 -85 -92 -85 -103 0 -4 -10 -19 -23 -34 -20 -24 -31 -27 -106 -33 -47 -4
-92 -11 -100 -15 -9 -5 -31 -15 -48 -22 -18 -7 -33 -16 -33 -20 0 -5 -6 -8
-14 -8 -7 0 -30 -19 -50 -42 -34 -40 -57 -83 -121 -223 -28 -61 -74 -158 -173
-365 -30 -63 -67 -142 -82 -175 -15 -33 -44 -93 -64 -134 -20 -41 -36 -80 -36
-88 0 -7 -4 -13 -10 -13 -5 0 -10 -6 -10 -13 0 -8 -20 -54 -44 -103 -25 -49
-58 -120 -75 -159 -18 -38 -39 -83 -48 -100 -9 -16 -20 -37 -24 -45 -3 -8 -16
-35 -28 -58 -11 -24 -21 -50 -21 -58 0 -8 -4 -14 -10 -14 -5 0 -10 -6 -10 -14
0 -8 -16 -45 -35 -82 -19 -37 -35 -73 -35 -80 0 -8 -4 -14 -10 -14 -5 0 -10
-6 -10 -14 0 -8 -9 -31 -19 -53 -10 -21 -39 -81 -64 -133 -25 -52 -70 -147
-100 -210 -30 -63 -71 -149 -90 -190 -104 -223 -120 -257 -129 -280 -6 -14
-14 -33 -19 -42 -5 -10 -9 -26 -9 -35 0 -10 -7 -31 -15 -47 -19 -36 -19 -66 2
-130 41 -127 61 -164 123 -226 61 -61 105 -81 276 -131 17 -5 44 -9 62 -9 17
0 34 -4 37 -10 3 -5 25 -10 49 -10 23 0 46 -4 52 -9 5 -5 28 -12 51 -15 24 -3
62 -9 85 -12 24 -3 47 -10 52 -15 6 -5 22 -9 37 -9 15 0 40 -5 56 -11 31 -13
95 -27 158 -36 22 -3 44 -9 49 -14 6 -5 29 -9 52 -9 24 0 46 -4 49 -10 3 -5
20 -10 37 -10 18 0 45 -4 62 -9 17 -6 58 -15 91 -21 33 -7 78 -18 100 -26 23
-8 54 -14 71 -14 16 0 34 -4 40 -9 5 -5 27 -11 49 -14 22 -4 65 -11 95 -17 30
-6 73 -14 95 -17 22 -3 45 -9 51 -14 18 -15 167 -21 234 -9 96 16 142 26 168
35 l22 7 0 1103 c0 1089 0 1102 -20 1120 -26 24 -70 117 -70 149 0 57 65 152
123 181 83 42 214 -5 252 -89 36 -81 33 -128 -10 -206 -19 -34 -20 -61 -23
-864 -1 -456 0 -836 3 -844 4 -11 8 -12 20 -2 13 11 70 23 178 36 26 4 50 11
53 15 3 5 28 9 56 9 57 0 53 -11 28 103 -5 26 -14 66 -19 90 -5 23 -17 69 -26
102 -20 75 -35 139 -42 188 -3 20 -9 40 -14 43 -5 3 -9 14 -9 26 0 11 -17 37
-39 58 -89 86 -96 184 -19 271 25 29 56 47 107 66 81 28 203 -50 230 -150 12
-43 12 -52 -9 -108 -24 -66 -23 -73 9 -193 11 -44 21 -89 21 -102 0 -13 5 -26
10 -29 6 -3 10 -24 10 -45 0 -21 5 -42 10 -45 6 -3 10 -24 10 -45 0 -21 5 -42
10 -45 6 -3 10 -22 10 -41 0 -19 6 -44 13 -57 6 -12 12 -23 13 -24 0 -1 25 2
55 8 91 17 162 29 204 35 22 4 44 10 49 14 5 5 -1 29 -14 57 -24 53 -48 107
-60 138 -8 21 -30 72 -75 170 -15 33 -31 69 -35 80 -4 11 -17 40 -28 65 -27
60 -60 137 -79 180 -8 19 -19 43 -24 52 -5 10 -9 25 -9 33 0 8 -4 15 -10 15
-5 0 -10 7 -10 15 0 8 -4 23 -9 33 -13 23 -61 131 -73 162 -6 14 -14 33 -19
42 -5 10 -9 25 -9 33 0 8 -4 15 -10 15 -5 0 -10 6 -10 13 0 7 -8 31 -19 53
-10 21 -26 57 -36 79 -9 22 -26 60 -37 85 -11 25 -24 54 -28 65 -12 30 -40 95
-61 139 -11 22 -19 46 -19 53 0 7 -4 13 -10 13 -5 0 -10 7 -10 15 0 8 -4 23
-9 33 -5 9 -13 28 -19 42 -5 14 -22 52 -37 85 -15 33 -31 69 -35 80 -4 11 -17
40 -28 65 -11 25 -27 61 -35 80 -20 47 -55 126 -77 175 -49 110 -60 136 -60
145 0 5 -24 27 -52 48 -86 64 -108 99 -108 176 0 44 6 62 33 101 92 133 248
125 341 -19 15 -24 18 -42 13 -110 -3 -59 -1 -91 10 -116 15 -34 24 -57 42
-102 5 -13 26 -59 46 -103 36 -77 49 -106 65 -150 8 -21 28 -67 75 -170 15
-33 31 -69 35 -80 4 -11 17 -40 28 -65 27 -60 60 -137 79 -180 8 -19 19 -43
24 -52 5 -10 9 -25 9 -33 0 -8 5 -15 10 -15 6 0 10 -7 10 -15 0 -8 4 -23 9
-33 13 -23 61 -131 73 -162 6 -14 14 -33 19 -42 5 -10 9 -25 9 -33 0 -8 5 -15
10 -15 6 0 10 -6 10 -13 0 -7 8 -31 19 -53 10 -21 26 -57 36 -79 9 -22 26 -60
37 -85 11 -25 24 -54 28 -65 4 -11 24 -55 44 -98 20 -43 36 -85 36 -93 0 -7 5
-14 10 -14 6 0 10 -7 10 -15 0 -8 4 -23 9 -33 5 -9 17 -35 26 -57 10 -22 31
-69 47 -105 31 -68 46 -102 58 -135 9 -23 58 -132 71 -157 5 -10 9 -25 9 -33
0 -8 5 -15 10 -15 6 0 10 -8 10 -18 0 -10 3 -22 7 -26 13 -12 33 -81 33 -112
0 -21 -11 -44 -36 -72 -29 -34 -42 -42 -69 -42 -19 0 -37 -5 -40 -10 -3 -6
-26 -10 -50 -10 -24 0 -47 -4 -50 -10 -3 -5 -26 -10 -50 -10 -24 0 -47 -4 -50
-10 -3 -5 -22 -10 -42 -10 -20 0 -50 -4 -67 -9 -61 -18 -132 -34 -271 -62 -27
-5 -71 -14 -97 -19 -108 -22 -150 -30 -196 -38 -26 -4 -52 -11 -57 -14 -6 -4
-30 -9 -54 -13 -96 -14 -92 -8 -89 -152 3 -108 5 -127 18 -124 50 13 99 23
130 27 19 3 44 9 55 14 11 5 36 11 55 14 19 3 56 10 83 15 115 26 144 32 172
37 27 4 86 20 171 45 17 5 44 9 62 9 17 0 34 4 37 10 3 5 23 10 44 10 20 0 41
4 47 9 5 5 27 11 49 14 22 3 60 10 85 16 25 5 66 14 91 20 86 19 179 63 228
111 43 41 101 122 101 142 0 8 4 18 9 23 28 30 29 215 1 280 -19 47 -44 103
-61 139 -11 22 -19 46 -19 53 0 7 -4 13 -10 13 -5 0 -10 7 -10 15 0 8 -4 23
-9 33 -5 9 -17 35 -26 57 -24 56 -75 167 -86 187 -5 10 -9 25 -9 33 0 8 -4 15
-10 15 -5 0 -10 7 -10 15 0 8 -4 23 -9 33 -13 25 -82 173 -91 197 -5 11 -21
49 -38 85 -16 36 -37 83 -47 105 -9 22 -25 58 -35 80 -21 46 -44 99 -59 135
-6 14 -15 32 -20 40 -5 8 -13 26 -19 40 -24 62 -52 126 -101 229 -12 25 -21
51 -21 58 0 7 -4 13 -10 13 -5 0 -10 7 -10 15 0 8 -4 23 -9 33 -5 9 -18 37
-29 62 -11 25 -32 72 -47 105 -15 33 -31 69 -35 80 -11 28 -41 97 -85 190 -21
44 -41 89 -45 100 -8 21 -45 102 -79 174 -12 25 -21 51 -21 58 0 7 -4 13 -10
13 -5 0 -10 7 -10 15 0 8 -4 23 -9 33 -5 9 -14 31 -21 47 -48 115 -85 167
-155 214 -59 40 -111 54 -201 56 -90 2 -103 7 -124 50 -8 17 -17 32 -20 35 -3
3 -20 24 -39 48 -45 57 -101 94 -193 126 -88 30 -160 32 -228 6z m187 -225
c45 -22 89 -77 109 -133 16 -45 17 -56 5 -89 -8 -21 -25 -52 -37 -69 l-24 -31
0 -1533 0 -1534 -36 -32 c-41 -38 -84 -50 -115 -34 -21 12 -93 26 -179 37 -25
3 -49 9 -54 14 -6 5 -31 9 -56 9 -25 0 -50 4 -56 9 -5 5 -29 11 -54 14 -54 7
-131 21 -225 42 -79 18 -161 33 -220 41 -22 3 -49 9 -60 14 -11 5 -38 11 -60
14 -22 3 -65 10 -95 15 -30 6 -81 14 -112 20 -31 5 -62 12 -68 16 -6 4 -37 11
-68 16 -54 9 -77 14 -220 39 -31 6 -77 13 -101 17 -32 4 -53 15 -81 43 -52 52
-57 84 -24 156 38 85 60 134 79 179 10 22 31 67 46 99 16 33 29 65 29 73 0 7
5 13 10 13 6 0 10 7 10 15 0 8 4 23 9 33 25 48 116 248 131 287 4 11 25 56 45
100 21 44 46 98 55 120 10 22 29 65 43 95 14 30 39 87 57 125 17 39 36 78 41
87 5 10 9 25 9 33 0 8 5 15 10 15 6 0 10 6 10 14 0 7 11 34 25 60 14 26 25 54
25 62 0 7 5 14 10 14 6 0 10 7 10 15 0 8 4 23 9 33 5 9 19 40 31 67 12 28 38
84 57 125 19 41 38 84 43 95 4 11 25 56 45 100 43 91 74 161 85 190 4 11 25
56 45 100 21 44 46 98 55 120 10 22 30 67 45 100 28 62 29 67 19 151 -4 40 -1
60 14 90 23 44 84 104 107 104 8 0 15 5 15 10 0 6 24 10 54 10 30 0 58 -4 61
-10 3 -5 15 -10 26 -10 10 0 19 -4 19 -8 0 -5 10 -14 23 -21 45 -24 67 -74 67
-155 0 -73 0 -74 -44 -120 -25 -25 -55 -50 -69 -55 -16 -6 -34 -32 -56 -78
-18 -37 -37 -76 -42 -85 -5 -10 -9 -25 -9 -33 0 -8 -4 -15 -10 -15 -5 0 -10
-6 -10 -13 0 -7 -9 -33 -21 -58 -26 -55 -66 -142 -89 -194 -21 -49 -89 -193
-101 -217 -5 -10 -9 -25 -9 -33 0 -8 -4 -15 -10 -15 -5 0 -10 -6 -10 -13 0 -8
-13 -40 -29 -73 -29 -61 -57 -124 -71 -159 -4 -11 -29 -65 -55 -120 -26 -55
-51 -109 -55 -120 -14 -36 -105 -236 -131 -287 -5 -10 -9 -25 -9 -33 0 -8 -4
-15 -10 -15 -5 0 -10 -6 -10 -13 0 -8 -13 -40 -29 -73 -15 -32 -36 -77 -46
-99 -42 -98 -54 -125 -90 -200 -20 -44 -41 -88 -46 -97 -5 -10 -9 -25 -9 -33
0 -8 -4 -15 -10 -15 -5 0 -10 -7 -10 -15 0 -8 -4 -23 -9 -33 -24 -45 -80 -169
-86 -189 -7 -24 -3 -26 80 -38 60 -8 131 -22 215 -40 41 -9 99 -20 128 -25 28
-6 77 -14 107 -20 30 -5 80 -14 110 -20 30 -5 79 -14 108 -20 28 -5 78 -13
109 -19 31 -5 62 -12 68 -16 7 -4 40 -12 73 -17 58 -8 87 -13 220 -38 28 -5
69 -12 90 -16 l38 -6 -3 68 -3 69 -45 3 c-25 2 -49 7 -55 13 -5 5 -26 9 -46 9
-21 0 -41 5 -44 10 -3 6 -21 10 -40 10 -19 0 -44 4 -57 9 -13 5 -59 17 -103
26 -44 10 -89 21 -100 26 -19 7 -43 12 -140 25 -22 4 -44 10 -50 15 -5 5 -25
9 -45 9 -20 0 -40 4 -45 9 -6 5 -28 11 -50 14 -123 17 -139 23 -197 76 -34 30
-38 87 -9 147 10 21 26 57 36 79 37 86 118 262 136 297 5 10 9 25 9 33 0 8 5
15 10 15 6 0 10 6 10 13 0 8 13 40 29 73 15 32 36 77 46 99 49 112 118 264
136 297 5 10 9 25 9 33 0 8 5 15 10 15 6 0 10 6 10 13 0 7 13 39 29 72 16 33
35 76 44 95 8 19 25 57 37 85 17 38 20 53 11 67 -33 53 3 167 68 217 56 42
141 65 156 41 3 -5 13 -10 21 -10 22 0 94 -48 101 -68 4 -9 9 -19 12 -22 4 -3
12 -26 18 -52 11 -40 10 -54 -7 -105 -18 -54 -66 -113 -94 -113 -14 0 -56 -42
-56 -56 0 -7 -9 -29 -19 -51 -27 -55 -91 -191 -111 -238 -10 -22 -34 -76 -55
-120 -20 -44 -45 -98 -55 -120 -10 -22 -32 -71 -50 -110 -69 -151 -82 -181
-90 -200 -4 -11 -24 -53 -44 -94 -20 -40 -36 -79 -36 -87 0 -8 -4 -14 -10 -14
-5 0 -10 -9 -10 -19 0 -11 -5 -23 -11 -27 -27 -16 29 -33 166 -50 22 -3 49 -9
60 -14 11 -5 38 -11 60 -14 22 -3 64 -10 93 -15 28 -6 73 -15 100 -20 71 -13
153 -31 188 -42 17 -5 40 -9 52 -9 l22 0 -2 1214 -3 1214 -32 46 c-18 26 -33
53 -33 61 0 7 -4 17 -10 20 -16 10 -12 59 9 107 19 44 61 90 103 113 32 18
129 18 165 0z"/>
</g>
</svg>
