<?xml version="1.0" standalone="no"?>
<!DOCTYPE svg PUBLIC "-//W3C//DTD SVG 20010904//EN"
 "http://www.w3.org/TR/2001/REC-SVG-20010904/DTD/svg10.dtd">
<svg version="1.0" xmlns="http://www.w3.org/2000/svg"
 width="920.000000pt" height="512.000000pt" viewBox="0 0 920.000000 512.000000"
 preserveAspectRatio="xMidYMid meet">

<g transform="translate(0.000000,512.000000) scale(0.100000,-0.100000)"
fill="#000000" stroke="none">
<path d="M2760 5021 c-145 -45 -227 -178 -200 -323 19 -101 115 -199 207 -214
24 -4 49 -12 57 -18 8 -6 91 -301 191 -676 98 -366 180 -672 182 -681 4 -14
-19 -17 -199 -22 -207 -6 -248 -12 -357 -56 -153 -62 -297 -206 -364 -367 -58
-137 -58 -137 -55 -1114 l3 -895 27 -80 c39 -114 92 -199 179 -286 62 -63 93
-86 171 -123 168 -82 18 -77 2031 -74 l1792 3 65 23 c122 45 201 93 280 172
86 86 139 171 178 285 l27 80 3 895 c2 790 1 904 -13 974 -28 139 -86 251
-179 349 -25 26 -46 52 -46 57 0 5 11 17 26 26 52 35 54 48 54 379 l0 306 -25
24 -24 25 -929 0 c-925 0 -929 0 -956 -21 l-26 -20 0 -190 c0 -176 1 -190 20
-209 11 -11 29 -20 40 -20 11 0 29 9 40 20 18 18 20 33 20 170 l0 150 860 0
860 0 0 -259 0 -259 -34 -26 -34 -26 -55 25 c-144 63 -31 59 -1592 65 l-1421
5 181 680 c99 374 183 685 187 691 4 6 28 14 53 17 101 14 193 108 213 218 31
165 -80 311 -248 326 -168 16 -310 -125 -297 -293 7 -97 51 -169 136 -225 l24
-15 -178 -670 c-98 -368 -182 -684 -187 -701 -9 -32 -10 -33 -67 -33 l-58 0
-187 702 -188 702 28 20 c153 109 178 298 56 428 -68 73 -183 106 -272 79z
m150 -132 c97 -55 107 -195 18 -263 -145 -110 -333 76 -223 220 49 64 135 82
205 43z m1084 7 c82 -34 116 -135 74 -216 -78 -149 -298 -93 -298 76 0 109
119 184 224 140z m2356 -2232 c62 -29 105 -67 138 -123 25 -43 27 -55 30 -185
2 -76 1 -158 -3 -182 l-6 -44 -1908 0 -1908 0 -6 83 c-20 249 7 349 114 423
80 55 1 53 1819 51 l1685 -2 45 -21z m-2050 -954 c24 -24 25 -48 4 -78 l-15
-22 -746 0 c-681 0 -748 1 -765 17 -24 21 -23 58 2 83 20 20 33 20 760 20 727
0 740 0 760 -20z m1715 -5 c205 -52 375 -225 430 -436 23 -88 17 -251 -13
-333 -54 -149 -160 -269 -295 -336 -244 -120 -498 -80 -687 110 -183 183 -229
436 -120 669 75 160 217 279 389 327 65 17 225 17 296 -1z m-1715 -315 c24
-24 25 -48 4 -78 l-15 -22 -746 0 c-681 0 -748 1 -765 17 -24 21 -23 58 2 83
20 20 33 20 760 20 727 0 740 0 760 -20z m0 -360 c24 -24 25 -48 4 -78 l-15
-22 -746 0 c-681 0 -748 1 -765 17 -24 21 -23 58 2 83 20 20 33 20 760 20 727
0 740 0 760 -20z m0 -360 c24 -24 25 -48 4 -78 l-15 -22 -746 0 c-681 0 -748
1 -765 17 -24 21 -23 58 2 83 20 20 33 20 760 20 727 0 740 0 760 -20z"/>
<path d="M5092 2495 c-37 -16 -56 -55 -47 -96 21 -95 165 -77 165 21 0 63 -59
100 -118 75z"/>
<path d="M6040 2503 c-94 -36 -72 -169 27 -166 72 2 108 84 61 137 -24 26 -62
39 -88 29z"/>
<path d="M5535 2475 c-51 -50 -14 -145 57 -145 35 0 88 48 88 80 0 78 -91 119
-145 65z"/>
<path d="M5738 1457 c-138 -59 -221 -180 -221 -326 0 -108 29 -177 103 -251
75 -75 143 -103 252 -103 64 0 87 5 140 30 78 37 143 100 177 173 22 47 26 69
26 150 0 111 -20 164 -92 241 -66 71 -138 102 -242 106 -73 3 -95 0 -143 -20z
m194 -101 c66 -19 114 -60 144 -122 36 -74 32 -160 -12 -230 -60 -97 -189
-132 -300 -80 -195 91 -165 372 46 437 39 11 73 10 122 -5z"/>
</g>
</svg>
