<?xml version="1.0" standalone="no"?>
<!DOCTYPE svg PUBLIC "-//W3C//DTD SVG 20010904//EN"
 "http://www.w3.org/TR/2001/REC-SVG-20010904/DTD/svg10.dtd">
<svg version="1.0" xmlns="http://www.w3.org/2000/svg"
 width="920.000000pt" height="920.000000pt" viewBox="0 0 920.000000 920.000000"
 preserveAspectRatio="xMidYMid meet">

<g transform="translate(0.000000,920.000000) scale(0.100000,-0.100000)"
fill="#000000" stroke="none">
<path d="M2749 9011 c-63 -40 -93 -77 -129 -152 -42 -90 -62 -194 -62 -319 -1
-123 11 -195 48 -287 50 -124 110 -190 192 -208 36 -8 35 -3 56 -155 9 -58 27
-181 41 -275 50 -332 305 -2054 305 -2059 0 -3 -67 -6 -149 -6 -218 0 -281
-15 -397 -96 -159 -111 -295 -344 -368 -631 -63 -244 -60 -147 -64 -1883 -2
-1027 1 -1629 7 -1711 25 -301 116 -596 242 -783 42 -61 167 -195 182 -196 5
0 23 -11 41 -25 18 -14 40 -25 48 -25 8 0 18 -3 22 -7 32 -32 63 -33 1838 -33
1291 0 1764 3 1785 11 44 18 126 58 148 71 40 26 153 145 194 204 126 188 217
482 242 783 6 82 9 684 7 1711 -4 1736 -1 1639 -64 1883 -36 141 -108 321
-155 389 -25 35 -24 56 7 101 54 81 54 76 54 666 0 345 -4 560 -10 583 -21 73
48 68 -973 68 l-918 0 -24 -24 c-13 -13 -26 -39 -30 -57 -3 -19 -5 -183 -3
-365 3 -310 4 -333 22 -353 24 -27 48 -27 72 0 18 19 19 42 22 305 l3 284 860
0 859 0 0 -461 0 -462 -31 -53 c-33 -58 -40 -62 -60 -38 -17 20 -114 86 -154
103 -95 42 -73 41 -1516 41 l-1379 0 4 23 c9 41 145 961 306 2067 63 433 55
397 93 406 42 9 65 23 101 62 76 83 121 197 135 342 25 267 -58 497 -208 574
-47 25 -101 20 -152 -12 -56 -36 -69 -52 -112 -132 -55 -102 -72 -183 -71
-340 0 -192 38 -322 121 -420 l36 -42 -27 -181 c-152 -1029 -249 -1685 -296
-2004 -28 -183 -50 -335 -50 -338 0 -3 -26 -5 -58 -5 l-58 0 -48 323 c-26 177
-70 471 -97 652 -27 182 -58 389 -69 460 -21 137 -146 981 -156 1052 -5 37 -2
46 34 92 143 180 161 544 39 763 -78 139 -180 183 -278 119z m117 -191 c24 0
79 -68 100 -122 14 -40 19 -79 19 -158 0 -123 -18 -187 -69 -246 -31 -36 -38
-39 -84 -39 -44 0 -54 4 -76 30 -104 120 -113 353 -19 485 27 37 74 62 101 54
8 -2 20 -4 28 -4z m1107 -6 c12 -3 34 -23 50 -44 94 -132 85 -364 -19 -485
-22 -26 -32 -30 -76 -30 -46 0 -53 3 -84 39 -51 59 -69 123 -69 246 0 118 18
185 66 239 28 33 72 53 97 45 8 -2 24 -7 35 -10z m2329 -4001 c77 -30 142
-118 185 -248 26 -76 27 -91 31 -335 2 -140 1 -288 -3 -327 l-7 -73 -1908 0
-1908 0 -7 207 c-9 246 -3 406 20 488 37 139 111 250 190 286 38 18 116 19
1702 19 1539 0 1666 -1 1705 -17z m-2015 -1727 c24 -21 27 -31 28 -83 0 -40
-6 -67 -18 -86 l-17 -27 -740 0 -740 0 -21 33 c-29 46 -21 133 16 165 l26 22
719 0 719 0 28 -24z m1737 -31 c82 -40 101 -56 177 -145 102 -121 194 -342
235 -565 22 -120 30 -420 15 -539 -30 -229 -103 -446 -200 -592 -70 -107 -126
-161 -218 -211 -65 -36 -72 -38 -163 -38 -85 0 -102 3 -155 29 -78 38 -198
158 -253 253 -75 129 -134 300 -168 488 -27 152 -25 430 5 600 37 213 100 379
195 517 60 89 72 102 135 151 85 66 141 86 240 87 76 0 91 -3 155 -35z m-1727
-552 c22 -33 24 -119 4 -156 l-14 -27 -748 0 -747 0 -17 36 c-20 43 -16 110 9
149 l16 25 740 0 740 0 17 -27z m-20 -628 c45 -31 54 -126 18 -181 l-15 -24
-740 0 -740 0 -20 33 c-11 17 -20 47 -20 65 0 42 23 97 47 111 12 7 243 10
733 11 621 0 718 -2 737 -15z m-3 -647 c26 -11 46 -57 46 -104 0 -35 -21 -84
-40 -94 -21 -11 -1447 -14 -1475 -4 -56 22 -58 175 -2 202 32 16 1437 16 1471
0z"/>
<path d="M5092 4485 c-98 -82 -37 -346 64 -280 72 47 72 240 0 290 -27 20 -29
19 -64 -10z"/>
<path d="M6037 4499 c-32 -19 -57 -84 -57 -149 0 -72 19 -122 54 -145 22 -14
29 -15 53 -3 36 17 56 59 61 129 5 66 -9 117 -43 153 -26 28 -40 31 -68 15z"/>
<path d="M5551 4472 c-63 -62 -51 -244 18 -278 92 -46 151 174 73 272 -29 37
-58 39 -91 6z"/>
<path d="M5831 2662 c-58 -6 -130 -61 -187 -143 -222 -321 -145 -969 132
-1105 66 -32 114 -34 176 -5 159 72 268 320 268 611 0 188 -33 333 -105 461
-76 134 -170 194 -284 181z m95 -218 c64 -31 114 -102 152 -219 25 -75 24
-320 -2 -395 -41 -121 -95 -190 -164 -211 -124 -37 -234 87 -272 305 -43 249
77 536 223 536 16 0 44 -7 63 -16z"/>
</g>
</svg>
