<?xml version="1.0" standalone="no"?>
<!DOCTYPE svg PUBLIC "-//W3C//DTD SVG 20010904//EN"
 "http://www.w3.org/TR/2001/REC-SVG-20010904/DTD/svg10.dtd">
<svg version="1.0" xmlns="http://www.w3.org/2000/svg"
 width="490.000000pt" height="273.000000pt" viewBox="0 0 490.000000 273.000000"
 preserveAspectRatio="xMidYMid meet">
<metadata>
Created by potrace 1.16, written by Peter Selinger 2001-2019
</metadata>
<g transform="translate(0.000000,273.000000) scale(0.100000,-0.100000)"
fill="#000000" stroke="none">
<path d="M1444 2666 c-62 -27 -97 -110 -75 -178 15 -44 48 -76 98 -93 29 -10
41 -21 50 -47 15 -44 183 -673 183 -686 0 -5 -48 -12 -107 -15 -60 -3 -130
-13 -158 -22 -97 -30 -183 -114 -230 -223 -19 -44 -20 -73 -23 -512 -2 -310 1
-486 8 -529 22 -124 99 -228 208 -279 l57 -27 995 0 995 0 57 27 c107 50 185
153 207 273 14 74 15 912 1 983 -12 66 -43 130 -87 181 l-35 42 21 23 c20 21
21 33 21 194 0 159 -1 172 -19 182 -27 14 -975 14 -1002 0 -17 -10 -19 -22
-19 -114 0 -80 3 -106 15 -116 12 -10 18 -10 30 0 11 9 15 33 15 91 l0 79 460
0 460 0 0 -133 c0 -116 -2 -136 -18 -150 -17 -15 -22 -15 -73 6 -54 22 -54 22
-816 25 -420 2 -763 5 -763 7 0 11 182 693 189 711 5 12 22 24 39 27 106 21
146 165 68 243 -92 92 -246 31 -246 -99 0 -55 19 -97 55 -124 l26 -19 -98
-369 -99 -370 -33 0 -34 0 -98 369 -99 369 35 34 c122 118 -5 307 -161 239z
m121 -71 c36 -35 35 -96 -1 -124 -40 -31 -87 -28 -118 10 -34 40 -33 74 3 110
38 37 82 39 116 4z m586 -4 c36 -36 37 -70 3 -110 -51 -61 -144 -28 -144 50 0
83 83 118 141 60z m1237 -1175 c15 -8 38 -26 52 -41 23 -24 25 -36 28 -131 l4
-104 -1021 0 -1021 0 0 93 c0 105 16 142 72 177 32 19 53 20 946 20 765 0 917
-2 940 -14z m-1093 -526 l0 -25 -404 -3 c-234 -1 -409 2 -414 7 -5 5 -6 18 -2
30 6 21 7 21 413 19 l407 -3 0 -25z m964 -2 c197 -95 242 -357 88 -511 -120
-120 -324 -120 -444 0 -87 87 -116 222 -73 337 35 93 124 171 225 197 49 13
154 1 204 -23z m-964 -168 l0 -25 -404 -3 c-234 -1 -409 2 -414 7 -5 5 -6 18
-2 30 6 21 7 21 413 19 l407 -3 0 -25z m-5 -175 c7 -8 10 -22 6 -30 -5 -13
-58 -15 -411 -15 -353 0 -406 2 -411 15 -4 8 -1 22 6 30 19 22 791 22 810 0z
m1 -191 c9 -11 10 -20 2 -32 -9 -15 -48 -17 -408 -17 -360 0 -399 2 -408 17
-8 12 -7 21 2 32 12 14 60 16 406 16 346 0 394 -2 406 -16z"/>
<path d="M3050 774 c-71 -31 -112 -96 -112 -176 1 -74 37 -129 107 -164 64
-31 124 -29 181 7 66 41 103 142 79 220 -30 100 -156 156 -255 113z m141 -67
c107 -72 62 -227 -66 -227 -69 0 -125 54 -125 122 0 45 19 78 59 105 43 29 89
29 132 0z"/>
</g>
</svg>
