<?xml version="1.0" standalone="no"?>
<!DOCTYPE svg PUBLIC "-//W3C//DTD SVG 20010904//EN"
 "http://www.w3.org/TR/2001/REC-SVG-20010904/DTD/svg10.dtd">
<svg version="1.0" xmlns="http://www.w3.org/2000/svg"
 width="900.000000pt" height="680.000000pt" viewBox="0 0 900.000000 680.000000"
 preserveAspectRatio="xMidYMid meet">
<metadata>
Created by potrace 1.16, written by Peter Selinger 2001-2019
</metadata>
<g transform="translate(0.000000,680.000000) scale(0.100000,-0.100000)"
fill="#000000" stroke="none">
<path d="M5359 5942 c-124 -35 -226 -110 -293 -215 -55 -87 -68 -133 -74 -247
-4 -93 -2 -113 20 -176 48 -138 134 -235 263 -295 58 -28 142 -49 191 -49 l24
0 0 180 0 180 -60 0 -60 0 0 70 0 70 60 0 60 0 0 68 c0 167 68 237 225 230
l70 -3 0 -65 0 -65 -57 -3 c-35 -2 -61 -9 -69 -18 -7 -8 -13 -43 -13 -77 l-1
-62 71 -3 70 -3 -9 -69 -10 -69 -61 -3 -61 -3 -3 -163 -3 -164 23 7 c89 27
206 129 256 223 148 277 19 611 -274 712 -85 30 -203 35 -285 12z"/>
<path d="M6958 4731 c-211 -68 -348 -255 -348 -475 0 -143 46 -254 144 -351
103 -102 207 -145 351 -145 144 0 264 50 358 149 101 106 142 219 135 376 -4
90 -8 108 -41 176 -64 133 -171 228 -305 269 -83 26 -214 26 -294 1z m387
-281 c42 -16 56 -66 56 -195 0 -130 -14 -179 -58 -196 -44 -18 -440 -17 -478
2 -41 20 -54 63 -54 189 -1 135 10 177 52 195 39 17 440 21 482 5z"/>
<path d="M3415 2996 c-36 -16 -81 -60 -103 -101 -16 -27 -17 -111 -17 -935 0
-498 3 -917 8 -932 11 -40 66 -98 112 -119 38 -18 95 -19 1055 -19 960 0 1017
1 1055 19 51 23 101 79 114 128 7 25 11 336 11 924 l0 885 -25 51 c-16 32 -41
61 -67 79 l-41 29 -1036 2 c-844 2 -1042 0 -1066 -11z m1997 -211 c15 -11 36
-37 48 -57 20 -36 20 -44 18 -607 -3 -557 -3 -570 -24 -598 -11 -15 -40 -38
-64 -50 -43 -22 -52 -23 -362 -23 l-318 0 0 -22 c0 -38 -45 -121 -83 -155 -34
-29 -117 -63 -157 -63 -9 0 -40 7 -68 15 -87 26 -150 97 -167 187 l-7 37 -327
3 c-373 3 -376 4 -419 88 l-22 45 2 562 c3 552 3 562 24 590 11 15 36 38 54
51 l33 22 906 -2 c888 -3 907 -3 933 -23z"/>
<path d="M4216 2564 c-13 -13 -16 -46 -16 -209 l0 -194 -127 -3 c-120 -3 -128
-4 -131 -24 -2 -15 61 -81 253 -267 157 -151 264 -247 276 -247 18 0 108 83
422 390 144 141 144 144 -25 148 l-128 3 0 194 c0 163 -3 196 -16 209 -13 14
-50 16 -254 16 -204 0 -241 -2 -254 -16z"/>
<path d="M7565 2973 c-160 -14 -323 -120 -397 -259 -152 -283 5 -637 317 -719
251 -65 518 85 596 334 23 76 27 191 8 266 -58 234 -287 399 -524 378z m286
-251 l29 -32 0 -209 c0 -195 -1 -210 -21 -234 -11 -15 -37 -32 -58 -38 -51
-15 -387 -8 -418 9 -47 26 -53 57 -53 261 0 104 4 201 10 215 5 14 24 35 42
46 31 19 47 20 236 18 l204 -3 29 -33z"/>
<path d="M7543 2546 c-22 -19 -28 -32 -28 -66 0 -84 95 -121 156 -61 37 37 38
79 3 120 -33 40 -89 43 -131 7z"/>
<path d="M7392 2413 c3 -125 4 -128 28 -141 36 -18 360 -13 383 7 14 11 17 34
17 136 l0 122 -31 -1 c-30 -1 -31 -2 -33 -53 -3 -91 -74 -158 -159 -150 -85 8
-140 65 -141 149 -1 52 -2 53 -34 56 l-33 3 3 -128z"/>
<path d="M1250 2951 c-83 -27 -137 -58 -193 -109 -109 -102 -159 -215 -160
-357 -1 -150 41 -253 143 -356 99 -101 213 -149 350 -149 303 0 535 269 491
568 -29 194 -167 349 -360 406 -73 21 -201 20 -271 -3z m226 -226 c-11 -8 -26
-15 -33 -15 -17 0 -16 -10 2 -34 8 -11 15 -38 15 -61 0 -34 -6 -47 -35 -75
-19 -19 -35 -42 -35 -51 0 -10 18 -33 40 -50 115 -92 40 -229 -124 -229 -131
0 -192 79 -126 163 19 24 49 37 121 51 22 5 25 10 21 39 -3 26 -8 33 -28 35
-34 3 -81 29 -94 51 -20 37 -12 97 17 132 40 47 75 58 183 58 86 0 93 -1 76
-14z"/>
<path d="M1264 2685 c-28 -43 -3 -127 48 -159 25 -16 70 4 80 36 11 33 -6 102
-33 129 -28 28 -75 25 -95 -6z"/>
<path d="M1265 2388 c-51 -28 -60 -80 -20 -118 21 -20 37 -24 86 -25 54 0 63
3 85 28 32 37 30 53 -10 93 -28 28 -41 34 -77 34 -24 0 -53 -6 -64 -12z"/>
</g>
</svg>
