<?xml version="1.0" standalone="no"?>
<!DOCTYPE svg PUBLIC "-//W3C//DTD SVG 20010904//EN"
 "http://www.w3.org/TR/2001/REC-SVG-20010904/DTD/svg10.dtd">
<svg version="1.0" xmlns="http://www.w3.org/2000/svg"
 width="490.000000pt" height="485.000000pt" viewBox="0 0 490.000000 485.000000"
 preserveAspectRatio="xMidYMid meet">
<metadata>
Created by potrace 1.16, written by Peter Selinger 2001-2019
</metadata>
<g transform="translate(0.000000,485.000000) scale(0.100000,-0.100000)"
fill="#000000" stroke="none">
<path d="M4050 4815 c-36 -8 -108 -36 -160 -62 -158 -79 -282 -221 -341 -388
-61 -175 -37 -407 59 -560 l31 -50 -151 -152 c-131 -131 -155 -151 -169 -140
-9 6 -52 40 -97 73 -95 73 -252 151 -376 189 -417 127 -863 33 -1201 -253
l-70 -59 -125 105 c-69 57 -138 115 -154 127 l-30 23 36 79 c45 98 58 160 58
273 0 119 -13 178 -65 285 -68 141 -177 255 -305 320 -150 76 -351 93 -510 42
-94 -29 -208 -98 -279 -169 -66 -66 -139 -184 -168 -273 -23 -69 -27 -98 -27
-205 0 -94 4 -140 18 -185 132 -430 606 -626 992 -410 35 20 76 47 92 60 17
14 33 25 37 25 11 0 300 -242 298 -250 -1 -4 -24 -43 -52 -88 -66 -106 -126
-249 -158 -375 -23 -89 -26 -124 -27 -272 -1 -105 4 -197 12 -240 53 -272 175
-502 368 -692 46 -45 84 -85 84 -89 0 -3 -46 -59 -102 -123 -56 -64 -103 -117
-103 -119 -1 -1 -37 15 -79 37 -157 80 -355 99 -511 48 -285 -93 -485 -362
-485 -652 0 -131 59 -303 145 -417 78 -105 251 -217 385 -249 90 -22 252 -17
340 10 187 56 348 194 430 366 97 204 79 473 -45 659 -19 29 -35 56 -35 61 0
6 149 182 211 249 18 19 20 19 106 -21 200 -93 317 -118 553 -118 199 1 288
15 440 72 328 124 617 406 740 726 156 406 106 843 -136 1194 l-53 78 151 152
152 152 31 -20 c62 -41 146 -79 217 -99 90 -25 246 -27 333 -5 139 36 279 124
362 228 67 85 96 137 128 237 24 73 28 101 28 200 -1 96 -5 128 -27 195 -69
215 -242 388 -456 456 -86 27 -251 34 -340 14z m265 -180 c245 -64 416 -313
378 -552 -15 -96 -46 -169 -98 -235 -126 -160 -307 -232 -489 -195 -114 23
-179 59 -262 141 -131 132 -179 292 -139 465 64 271 346 444 610 376z m-3517
-130 c93 -22 159 -60 233 -134 104 -104 152 -217 151 -356 -1 -135 -59 -271
-154 -362 -47 -45 -141 -99 -207 -120 -81 -24 -218 -22 -296 6 -140 50 -270
176 -316 306 -29 85 -36 213 -14 295 24 93 61 156 135 231 126 126 295 175
468 134z m1933 -994 c195 -53 357 -149 500 -298 73 -75 128 -158 184 -276 73
-153 89 -232 90 -432 0 -185 -9 -238 -67 -385 -33 -82 -118 -231 -129 -224 -4
2 -10 25 -14 51 -10 68 -43 151 -74 184 -19 21 -82 51 -229 109 -171 68 -213
89 -263 130 -33 28 -65 50 -70 50 -22 0 -57 -25 -120 -87 l-66 -65 -59 62
c-55 57 -99 90 -123 90 -5 0 -36 -22 -68 -49 -50 -42 -93 -63 -264 -131 -112
-45 -212 -89 -222 -98 -29 -26 -54 -82 -72 -158 -9 -38 -19 -75 -21 -83 -6
-19 -84 108 -124 200 -51 121 -71 212 -77 351 -9 210 25 364 121 543 151 285
410 469 756 539 14 2 95 3 180 1 117 -3 174 -9 231 -24z m-1506 -2336 c109
-31 246 -149 299 -258 142 -289 -20 -630 -339 -712 -254 -65 -531 106 -599
371 -57 222 55 461 264 567 113 57 246 68 375 32z"/>
<path d="M4092 4438 c-7 -7 -12 -38 -12 -70 0 -57 0 -58 -29 -58 -24 0 -31 -5
-36 -28 -9 -43 9 -82 40 -82 l25 0 0 -115 c0 -133 11 -170 61 -206 45 -32 139
-38 189 -12 31 16 35 22 32 52 -4 59 -19 74 -63 67 -51 -8 -59 8 -59 123 l0
90 58 3 57 3 3 49 c4 58 -4 66 -70 66 l-48 0 0 59 c0 44 -4 60 -16 65 -28 11
-120 6 -132 -6z"/>
<path d="M561 4293 c-41 -21 -60 -39 -78 -72 -42 -80 -25 -221 33 -273 57 -50
154 -62 212 -26 l35 22 -6 -35 c-4 -19 -17 -42 -28 -51 -27 -23 -103 -24 -155
-2 -38 16 -39 16 -61 -11 -13 -14 -23 -39 -23 -54 0 -42 67 -66 185 -66 76 0
96 4 130 23 47 27 83 76 96 129 10 43 12 393 3 417 -9 23 -129 23 -142 0 -8
-15 -11 -15 -34 0 -13 9 -44 19 -69 22 -36 5 -54 1 -98 -23z m162 -107 c46
-35 40 -142 -8 -164 -39 -18 -63 -15 -90 13 -35 34 -35 106 0 140 27 28 70 32
98 11z"/>
<path d="M2337 3385 c-104 -29 -199 -113 -238 -211 -20 -51 -23 -76 -22 -179
2 -270 81 -445 237 -525 63 -32 75 -35 161 -35 86 0 98 3 161 35 156 80 237
260 238 530 0 95 -4 125 -22 171 -40 102 -129 179 -243 213 -64 19 -204 20
-272 1z"/>
<path d="M1041 972 c-57 -28 -75 -63 -79 -148 -4 -68 -6 -74 -26 -74 -31 0
-46 -19 -46 -55 0 -37 16 -55 47 -55 23 0 23 -2 23 -115 0 -130 3 -135 80
-135 77 0 80 5 80 135 l0 114 58 3 57 3 0 50 0 50 -57 3 -58 3 0 43 c0 52 14
67 65 63 35 -2 38 0 51 37 8 22 12 47 9 56 -12 39 -143 54 -204 22z"/>
</g>
</svg>
