<?xml version="1.0" standalone="no"?>
<!DOCTYPE svg PUBLIC "-//W3C//DTD SVG 20010904//EN"
 "http://www.w3.org/TR/2001/REC-SVG-20010904/DTD/svg10.dtd">
<svg version="1.0" xmlns="http://www.w3.org/2000/svg"
 width="920.000000pt" height="920.000000pt" viewBox="0 0 920.000000 920.000000"
 preserveAspectRatio="xMidYMid meet">

<g transform="translate(0.000000,920.000000) scale(0.100000,-0.100000)"
fill="#000000" stroke="none">
<path d="M1494 8685 c-10 -8 -27 -15 -36 -15 -22 0 -120 -96 -142 -139 -21
-39 -46 -132 -46 -166 0 -85 39 -174 105 -240 57 -58 126 -95 178 -95 71 0 86
-14 140 -143 9 -20 23 -52 30 -70 8 -17 24 -53 36 -78 11 -25 21 -51 21 -57 0
-6 6 -23 14 -39 8 -15 21 -45 30 -65 32 -76 48 -114 61 -143 8 -16 26 -59 40
-95 15 -36 31 -69 36 -75 5 -5 9 -19 9 -31 0 -12 7 -27 15 -34 8 -7 15 -20 15
-29 0 -10 7 -26 15 -37 8 -10 15 -25 15 -33 0 -8 10 -35 21 -60 24 -50 44 -97
67 -151 8 -19 21 -48 28 -65 7 -16 22 -52 34 -80 12 -27 28 -65 36 -82 20 -46
39 -91 60 -143 25 -63 53 -129 70 -167 8 -18 21 -49 29 -68 8 -19 22 -51 30
-70 8 -19 22 -52 31 -73 9 -20 22 -50 29 -67 7 -16 23 -51 35 -77 12 -26 19
-52 15 -58 -4 -7 -302 -10 -908 -10 -850 0 -906 -1 -955 -18 -60 -22 -100 -54
-139 -114 l-28 -43 0 -2295 0 -2295 26 -40 c25 -37 58 -71 103 -106 16 -11 96
-15 460 -19 l441 -5 5 -231 c4 -175 8 -235 19 -247 12 -15 46 -17 306 -17 260
0 294 2 306 17 11 12 15 72 19 247 l5 231 2435 0 2435 0 1 -236 c0 -129 4
-241 8 -247 5 -9 85 -12 300 -12 261 0 295 2 307 17 11 12 15 72 19 247 l5
231 441 5 c364 4 444 8 460 19 45 35 78 69 103 106 l26 40 0 2295 0 2295 -28
43 c-39 60 -79 92 -139 114 -50 17 -162 18 -2860 18 -1856 0 -2809 3 -2813 10
-3 5 1 22 9 37 8 16 23 46 32 68 24 58 53 125 69 160 7 17 23 55 35 85 11 30
27 69 35 85 20 46 68 158 88 208 8 17 21 48 30 67 22 49 38 86 102 240 31 74
63 151 72 170 9 19 22 50 30 68 30 74 65 155 87 205 36 79 56 130 56 142 0 7
7 18 15 25 8 7 15 23 15 35 0 12 7 28 15 35 8 7 15 18 15 25 0 11 18 56 55
140 14 32 36 83 59 138 62 149 69 156 146 157 107 1 232 118 266 247 18 68 18
108 0 176 -26 99 -100 186 -195 228 -62 27 -182 26 -247 -2 -54 -23 -174 -139
-174 -167 0 -9 -7 -30 -15 -46 -17 -31 -21 -181 -6 -190 5 -3 12 -18 16 -33 3
-14 22 -50 41 -80 44 -65 43 -78 -19 -201 -9 -19 -17 -38 -17 -43 0 -9 -20
-58 -57 -139 -9 -19 -22 -50 -30 -67 -7 -18 -19 -48 -26 -65 -13 -31 -30 -71
-62 -143 -8 -16 -24 -55 -35 -85 -12 -30 -28 -70 -36 -87 -8 -18 -21 -49 -29
-68 -18 -44 -37 -87 -64 -146 -12 -25 -21 -52 -21 -61 0 -9 -7 -21 -15 -28 -8
-7 -15 -23 -15 -35 0 -12 -7 -28 -15 -35 -8 -7 -15 -18 -15 -25 0 -12 -22 -68
-57 -145 -9 -19 -22 -50 -30 -67 -7 -18 -19 -48 -27 -65 -8 -18 -24 -58 -36
-88 -11 -30 -28 -71 -37 -90 -18 -39 -40 -89 -60 -137 -15 -37 -39 -94 -58
-138 -54 -122 -64 -145 -69 -145 -2 0 -14 21 -26 48 -12 26 -27 61 -35 77 -8
17 -24 55 -35 85 -12 30 -28 70 -36 88 -8 17 -21 48 -29 67 -8 19 -21 50 -29
68 -8 17 -24 55 -36 82 -11 28 -27 63 -35 78 -8 16 -15 37 -15 47 0 9 -7 23
-15 30 -8 7 -15 19 -15 28 0 9 -9 36 -21 61 -27 59 -46 102 -64 146 -8 19 -22
52 -31 73 -24 55 -39 91 -64 152 -13 30 -29 70 -37 87 -7 18 -20 49 -28 68 -8
19 -22 51 -30 70 -8 19 -21 50 -29 68 -17 38 -45 104 -70 167 -10 25 -25 60
-32 78 -8 17 -21 48 -29 67 -18 44 -37 87 -64 146 -12 25 -21 52 -21 61 0 9
-6 21 -14 27 -8 6 -16 28 -18 49 -4 29 2 46 27 82 93 134 92 279 -1 410 -35
49 -66 74 -132 108 -34 18 -60 22 -130 22 -62 0 -94 -4 -108 -15z m216 -120
c93 -65 126 -194 76 -293 -42 -81 -128 -142 -203 -142 -55 0 -140 47 -186 102
-37 44 -40 53 -45 122 -4 63 -1 82 18 122 26 52 40 69 85 99 66 44 184 40 255
-10z m2197 13 c103 -62 139 -206 81 -323 -23 -46 -45 -66 -110 -100 -60 -32
-101 -31 -171 0 -55 25 -127 93 -127 118 0 8 -7 28 -16 46 -30 60 0 154 73
227 44 44 59 53 95 57 70 6 141 -4 175 -25z m3098 -3233 c23 -13 55 -41 71
-62 l29 -38 3 -1745 c2 -960 0 -1764 -3 -1787 -7 -51 -40 -93 -95 -122 l-41
-21 -2839 0 -2839 0 -41 21 c-48 25 -82 68 -98 125 -17 60 -17 3449 0 3508 17
57 50 98 100 124 l43 22 2834 0 2834 0 42 -25z m1043 4 c53 -24 103 -68 135
-119 19 -30 22 -50 22 -130 0 -80 -3 -100 -22 -130 -50 -81 -145 -140 -223
-140 -84 0 -197 76 -236 158 -22 46 -22 177 0 223 39 84 149 158 234 159 24 0
64 -9 90 -21z m-27 -941 c93 -30 150 -140 123 -240 -27 -106 -108 -157 -222
-143 -111 14 -178 122 -151 243 27 115 135 175 250 140z m7 -860 c48 -30 64
-46 85 -91 22 -49 22 -84 -3 -138 -29 -65 -77 -94 -156 -94 -79 0 -108 20
-148 100 l-29 58 18 53 c38 113 147 165 233 112z m465 -1115 c17 -8 27 -20 27
-33 0 -43 -26 -45 -555 -45 -527 0 -555 2 -555 44 0 47 33 49 580 47 345 -1
483 -5 503 -13z m8 -281 c12 -11 20 -25 17 -34 -13 -34 -76 -38 -560 -38 -402
0 -481 2 -512 15 -39 16 -45 34 -20 59 14 14 76 16 534 16 488 0 519 -1 541
-18z m-21 -272 c46 -23 50 -41 15 -64 -22 -14 -82 -16 -538 -16 l-514 0 -23
25 c-26 27 -23 34 25 59 26 14 95 16 513 16 465 0 484 -1 522 -20z m-8 -272
c49 -15 59 -35 29 -60 -22 -17 -53 -18 -541 -18 -458 0 -520 2 -534 16 -25 24
-19 44 17 59 43 19 967 22 1029 3z"/>
</g>
</svg>
