<?xml version="1.0" standalone="no"?>
<!DOCTYPE svg PUBLIC "-//W3C//DTD SVG 20010904//EN"
 "http://www.w3.org/TR/2001/REC-SVG-20010904/DTD/svg10.dtd">
<svg version="1.0" xmlns="http://www.w3.org/2000/svg"
 width="490.000000pt" height="490.000000pt" viewBox="0 0 490.000000 490.000000"
 preserveAspectRatio="xMidYMid meet">

<g transform="translate(0.000000,490.000000) scale(0.100000,-0.100000)"
fill="#000000" stroke="none">
<path d="M758 4605 c-53 -36 -82 -102 -75 -172 9 -84 72 -153 142 -153 25 0
65 -31 65 -50 0 -5 16 -44 35 -86 19 -41 35 -77 35 -79 0 -3 11 -29 25 -59 14
-30 25 -57 25 -60 0 -3 11 -29 24 -58 13 -29 43 -98 66 -153 23 -55 50 -118
60 -140 10 -22 41 -96 70 -165 68 -164 89 -211 100 -232 6 -10 10 -22 10 -28
0 -7 -164 -10 -485 -10 -467 0 -487 -1 -525 -20 -75 -38 -70 61 -70 -1306 l0
-1227 40 -39 41 -38 234 0 234 0 3 -127 3 -128 166 -3 166 -2 7 31 c3 17 6 76
6 130 l0 99 1298 -2 1297 -3 0 -128 0 -127 165 2 165 3 3 128 3 127 234 0 234
0 41 38 40 39 0 1227 c0 1367 5 1268 -70 1306 -39 20 -56 20 -1540 20 -825 0
-1500 2 -1500 5 0 4 79 190 115 270 7 17 37 86 65 155 29 69 62 148 75 175 12
28 39 91 60 140 20 50 43 104 50 120 8 17 34 77 59 135 46 109 47 110 121 125
42 9 100 74 113 128 16 62 -6 134 -53 176 -43 37 -70 45 -141 39 -43 -4 -61
-11 -85 -34 -73 -69 -87 -148 -40 -229 l29 -50 -20 -50 c-10 -27 -25 -63 -33
-80 -7 -16 -37 -86 -65 -155 -29 -69 -63 -149 -76 -178 -13 -29 -24 -55 -24
-58 0 -3 -9 -24 -19 -47 -10 -23 -38 -87 -61 -142 -23 -55 -53 -124 -66 -153
-13 -29 -24 -55 -24 -58 0 -3 -9 -24 -19 -47 -10 -23 -27 -60 -36 -82 l-17
-40 -22 46 c-12 25 -44 97 -70 160 -27 63 -57 133 -67 156 -10 23 -19 44 -19
47 0 3 -11 29 -24 58 -13 29 -47 109 -76 178 -29 69 -61 144 -71 167 -10 23
-19 44 -19 47 0 3 -11 29 -24 58 -50 113 -66 151 -66 163 0 8 11 36 25 63 31
61 32 112 4 169 -31 64 -79 93 -154 93 -48 0 -68 -5 -97 -25z m168 -59 c30
-30 34 -41 34 -84 0 -55 -22 -92 -70 -117 -37 -19 -59 -19 -98 1 -47 23 -72
64 -72 117 0 38 6 52 34 81 30 32 39 36 86 36 46 0 56 -4 86 -34z m1167 14
c57 -45 60 -149 5 -195 -34 -29 -68 -40 -101 -31 -61 15 -114 93 -101 149 3
16 19 44 36 63 27 31 35 34 83 34 37 0 60 -6 78 -20z m1657 -1729 l35 -29 3
-940 c1 -606 -1 -949 -8 -966 -5 -14 -24 -35 -42 -46 -33 -20 -51 -20 -1538
-20 -1487 0 -1505 0 -1538 20 -18 11 -37 32 -42 46 -6 16 -10 374 -10 951 0
1003 -1 975 53 1001 15 7 490 11 1537 11 l1516 1 34 -29z m552 7 c50 -28 68
-63 68 -127 0 -42 -5 -56 -31 -86 -18 -20 -48 -40 -71 -47 -36 -11 -45 -9 -84
11 -57 31 -77 63 -78 126 -1 113 100 176 196 123z m-4 -505 c66 -41 51 -159
-23 -183 -76 -25 -136 16 -137 94 -1 52 18 80 67 102 32 14 56 11 93 -13z m-7
-453 c55 -40 44 -136 -19 -158 -96 -33 -164 77 -93 149 35 35 71 37 112 9z
m239 -590 c12 -7 12 -12 2 -22 -10 -10 -77 -13 -292 -13 -153 0 -282 3 -285 7
-4 4 -5 14 -2 23 6 13 43 15 284 15 157 0 285 -4 293 -10z m1 -147 c7 -7 9
-16 5 -20 -9 -9 -530 -17 -563 -8 -27 6 -30 31 -5 38 9 3 137 4 284 4 197 -2
270 -5 279 -14z m-10 -144 c16 -8 18 -13 8 -25 -17 -21 -561 -21 -578 0 -10
11 -8 17 6 25 25 14 537 15 564 0z m9 -149 c12 -7 12 -12 2 -22 -10 -10 -74
-14 -255 -16 -260 -4 -327 1 -327 23 0 7 6 16 13 18 23 10 552 7 567 -3z"/>
</g>
</svg>
