<?xml version="1.0" standalone="no"?>
<!DOCTYPE svg PUBLIC "-//W3C//DTD SVG 20010904//EN"
 "http://www.w3.org/TR/2001/REC-SVG-20010904/DTD/svg10.dtd">
<svg version="1.0" xmlns="http://www.w3.org/2000/svg"
 width="285.000000pt" height="276.000000pt" viewBox="0 0 285.000000 276.000000"
 preserveAspectRatio="xMidYMid meet">
<metadata>
Created by potrace 1.16, written by Peter Selinger 2001-2019
</metadata>
<g transform="translate(0.000000,276.000000) scale(0.100000,-0.100000)"
fill="#000000" stroke="none">
<path d="M434 2595 c-30 -21 -47 -68 -40 -109 7 -39 42 -71 84 -81 25 -5 39
-33 163 -315 l137 -310 -294 0 c-281 0 -295 -1 -314 -20 -20 -20 -20 -33 -20
-723 0 -669 1 -705 18 -720 15 -14 42 -17 160 -17 l142 0 0 -75 0 -76 103 3
102 3 3 73 3 72 750 0 750 0 -2 -72 -2 -73 101 -3 102 -3 0 76 0 75 143 0
c127 0 146 2 160 18 16 17 17 81 17 720 0 689 0 702 -20 722 -20 20 -33 20
-900 20 -484 0 -880 3 -880 8 0 4 60 143 132 309 132 299 133 301 169 312 54
16 74 44 74 103 0 42 -4 53 -28 74 -67 58 -177 13 -177 -73 0 -21 7 -48 15
-61 15 -20 8 -38 -117 -325 l-133 -304 -133 304 c-124 285 -131 305 -117 326
26 37 19 94 -14 128 -24 23 -38 29 -73 29 -24 0 -53 -7 -64 -15z m1746 -1005
c19 -19 20 -33 20 -548 0 -440 -2 -531 -14 -548 -14 -19 -36 -19 -897 -22
-780 -2 -885 -1 -906 13 l-23 15 0 540 0 539 22 15 c20 14 122 16 900 16 865
0 878 0 898 -20z m319 5 c46 -23 55 -76 21 -112 -26 -29 -55 -36 -82 -22 -63
33 -64 102 -3 137 26 15 31 15 64 -3z"/>
</g>
</svg>
