<?xml version="1.0" standalone="no"?>
<!DOCTYPE svg PUBLIC "-//W3C//DTD SVG 20010904//EN"
 "http://www.w3.org/TR/2001/REC-SVG-20010904/DTD/svg10.dtd">
<svg version="1.0" xmlns="http://www.w3.org/2000/svg"
 width="222.000000pt" height="227.000000pt" viewBox="0 0 222.000000 227.000000"
 preserveAspectRatio="xMidYMid meet">

<g transform="translate(0.000000,227.000000) scale(0.100000,-0.100000)"
fill="#000000" stroke="none">
<path d="M940 2215 c-530 -88 -920 -544 -920 -1076 0 -298 112 -570 321 -779
141 -141 303 -233 508 -288 86 -23 114 -26 266 -25 152 0 181 3 270 26 119 32
294 116 386 186 521 396 584 1156 135 1628 -153 162 -350 272 -569 319 -104
22 -294 26 -397 9z m110 -351 l0 -227 -71 7 c-74 7 -209 34 -209 42 0 15 67
133 119 210 54 80 146 194 157 194 2 0 4 -102 4 -226z m269 61 c65 -94 144
-242 133 -249 -16 -10 -183 -36 -228 -36 l-44 0 0 228 1 227 45 -50 c25 -27
67 -81 93 -120z m-525 54 c-29 -45 -74 -122 -99 -171 -53 -102 -38 -99 -178
-35 l-88 40 33 34 c51 53 193 144 282 180 45 18 86 33 92 33 7 0 -12 -37 -42
-81z m743 21 c89 -44 238 -147 258 -180 6 -10 -153 -92 -197 -102 -11 -2 -30
25 -65 93 -28 53 -74 131 -103 174 -52 78 -52 78 -24 71 16 -3 75 -29 131 -56z
m-1106 -329 c46 -21 101 -44 121 -50 21 -7 40 -16 43 -21 3 -5 -4 -44 -15 -87
-18 -65 -49 -256 -50 -300 0 -10 -45 -13 -191 -13 l-192 0 7 59 c9 83 41 192
80 276 34 75 96 175 107 175 3 0 44 -17 90 -39z m1479 12 c66 -84 147 -296
164 -431 l7 -52 -193 2 -193 3 -6 75 c-7 84 -34 223 -54 280 l-13 38 56 21
c31 12 89 37 127 55 39 19 73 35 77 35 4 1 16 -11 28 -26z m-1050 -148 c41 -8
91 -15 110 -15 83 -1 80 6 80 -166 l0 -154 -195 0 -195 0 0 49 c0 54 21 176
46 259 15 54 16 54 47 47 18 -3 66 -13 107 -20z m674 -82 c14 -60 29 -141 32
-180 l7 -73 -197 0 -196 0 0 154 0 154 31 6 c17 3 48 6 68 7 20 0 72 9 116 18
44 10 87 19 97 20 13 1 22 -21 42 -106z m-994 -423 c0 -50 32 -216 58 -297
l19 -61 -81 -33 c-44 -17 -107 -45 -139 -61 l-57 -28 -34 52 c-81 128 -137
278 -152 407 l-7 61 197 0 196 0 0 -40z m510 -119 l0 -158 -75 -6 c-41 -4
-109 -14 -151 -23 -42 -8 -80 -12 -84 -7 -20 20 -80 274 -80 336 0 16 16 17
195 17 l195 0 0 -159z m520 152 c0 -37 -35 -208 -56 -273 -23 -75 -27 -81 -47
-76 -39 11 -211 36 -249 36 l-38 0 0 160 0 160 195 0 c107 0 195 -3 195 -7z
m505 -40 c-23 -166 -89 -336 -173 -448 l-17 -23 -57 29 c-32 16 -92 43 -135
60 -43 17 -79 32 -81 33 -1 2 7 29 18 61 23 68 60 251 60 301 l0 34 196 0 195
0 -6 -47z m-1025 -615 l-1 -223 -25 30 c-46 55 -165 237 -200 306 l-34 69 24
6 c39 9 179 32 209 33 l27 1 0 -222z m325 200 c33 -6 61 -12 63 -13 14 -12
-177 -317 -250 -399 -4 -6 -8 91 -8 213 l0 224 68 -7 c37 -4 94 -12 127 -18z
m284 -85 c47 -20 99 -44 114 -54 l28 -16 -48 -43 c-69 -62 -176 -129 -262
-165 -73 -31 -131 -49 -131 -42 0 2 25 41 55 88 31 46 77 126 103 176 26 51
49 93 51 93 2 0 43 -17 90 -37z m-955 -47 c21 -41 67 -119 102 -173 34 -54 59
-99 54 -101 -15 -6 -164 57 -238 100 -66 39 -190 135 -191 149 -1 6 208 97
225 98 6 1 28 -32 48 -73z"/>
</g>
</svg>
