<?xml version="1.0" standalone="no"?>
<!DOCTYPE svg PUBLIC "-//W3C//DTD SVG 20010904//EN"
 "http://www.w3.org/TR/2001/REC-SVG-20010904/DTD/svg10.dtd">
<svg version="1.0" xmlns="http://www.w3.org/2000/svg"
 width="490.000000pt" height="490.000000pt" viewBox="0 0 490.000000 490.000000"
 preserveAspectRatio="xMidYMid meet">

<g transform="translate(0.000000,490.000000) scale(0.100000,-0.100000)"
fill="#000000" stroke="none">
<path d="M2240 4738 c-233 -20 -522 -96 -752 -198 -610 -272 -1092 -857 -1264
-1536 -53 -210 -68 -333 -68 -554 0 -218 15 -342 65 -543 107 -426 322 -795
640 -1102 300 -288 588 -457 959 -564 638 -182 1343 -77 1889 283 275 182 535
454 709 743 237 395 357 888 323 1331 -49 658 -351 1226 -882 1659 -437 356
-1027 532 -1619 481z m60 -696 c0 -197 -2 -361 -4 -363 -16 -16 -507 39 -528
59 -10 10 103 240 166 336 68 105 189 234 270 286 104 68 96 93 96 -318z m396
318 c81 -52 202 -181 270 -286 57 -87 176 -323 168 -335 -7 -12 -400 -59 -494
-59 l-40 0 0 360 c0 413 -8 388 96 320z m-1012 -97 c-53 -81 -137 -237 -180
-334 l-48 -111 -38 6 c-47 8 -279 83 -291 95 -9 9 128 127 223 192 73 49 318
178 339 179 10 0 9 -7 -5 -27z m1605 -18 c155 -68 307 -164 452 -287 l44 -37
-46 -19 c-78 -34 -232 -90 -264 -96 -30 -6 -30 -5 -95 131 -36 75 -93 183
-126 240 -34 57 -58 103 -53 103 4 0 44 -16 88 -35z m-2259 -613 c102 -40 203
-76 306 -107 8 -2 4 -39 -12 -122 -37 -180 -73 -440 -85 -618 -6 -88 -13 -166
-15 -172 -3 -10 -88 -13 -384 -13 l-381 0 6 48 c38 275 118 529 238 754 70
132 177 290 192 284 6 -2 66 -26 135 -54z m3036 -15 c206 -290 331 -613 369
-955 l7 -62 -384 2 -383 3 -3 55 c-10 206 -58 538 -107 739 -14 57 -24 105
-23 107 2 1 75 28 163 59 88 31 192 72 230 90 39 18 72 34 75 34 3 0 28 -32
56 -72z m-2270 -197 c99 -16 423 -50 487 -50 16 0 17 -23 15 -382 l-3 -383
-383 -3 -383 -2 6 82 c24 307 101 758 130 758 7 0 66 -9 131 -20z m1468 -52
c47 -206 82 -446 101 -686 l6 -82 -383 2 -383 3 -3 381 -2 381 125 6 c118 6
358 37 435 56 83 21 86 19 104 -61z m-2037 -1113 c15 -251 54 -526 103 -730
16 -70 29 -129 27 -131 -1 -1 -74 -28 -162 -59 -88 -32 -193 -72 -234 -91 -86
-40 -66 -52 -171 104 -177 265 -290 574 -325 890 l-7 62 384 -2 383 -3 2 -40z
m1071 -341 l2 -381 -127 -7 c-143 -7 -213 -16 -391 -47 -67 -12 -125 -20 -128
-17 -22 22 -101 526 -119 756 l-6 82 383 -2 383 -3 3 -381z m1072 373 c0 -115
-64 -575 -106 -754 -18 -83 -10 -79 -132 -58 -79 14 -274 36 -449 50 l-83 7 0
377 c0 208 3 381 7 384 3 4 177 7 385 7 305 0 378 -3 378 -13z m1065 -49 c-34
-311 -149 -627 -325 -890 -105 -156 -85 -144 -171 -104 -41 19 -146 60 -234
91 -88 31 -161 58 -163 59 -1 2 11 59 27 127 51 216 101 563 101 710 0 31 3
59 7 62 3 4 177 7 386 7 l379 0 -7 -62z m-1445 -1048 c74 -12 138 -25 142 -28
10 -10 -103 -240 -166 -336 -68 -105 -189 -234 -270 -286 -104 -68 -96 -93
-96 318 0 197 2 361 4 363 10 9 259 -11 386 -31z m-690 -330 c0 -413 8 -388
-96 -320 -81 52 -202 181 -270 286 -57 87 -176 323 -168 335 8 13 359 55 477
58 l57 1 0 -360z m-780 103 c36 -75 93 -183 126 -240 34 -57 58 -103 54 -103
-31 0 -265 119 -360 183 -85 57 -220 171 -213 178 15 14 296 119 318 119 6 -1
39 -62 75 -137z m2076 76 c64 -22 133 -48 152 -58 l35 -18 -69 -57 c-38 -32
-99 -78 -137 -102 -78 -53 -353 -197 -366 -192 -4 2 22 54 60 117 38 63 92
167 120 233 38 86 57 118 69 118 10 0 71 -18 136 -41z"/>
</g>
</svg>
