<?xml version="1.0" standalone="no"?>
<!DOCTYPE svg PUBLIC "-//W3C//DTD SVG 20010904//EN"
 "http://www.w3.org/TR/2001/REC-SVG-20010904/DTD/svg10.dtd">
<svg version="1.0" xmlns="http://www.w3.org/2000/svg"
 width="512.000000pt" height="512.000000pt" viewBox="0 0 512.000000 512.000000"
 preserveAspectRatio="xMidYMid meet">

<g transform="translate(0.000000,512.000000) scale(0.100000,-0.100000)"
fill="#000000" stroke="none">
<path d="M2330 4950 c-743 -77 -1352 -444 -1762 -1059 -200 -301 -330 -640
-385 -1001 -24 -161 -24 -502 0 -660 102 -655 437 -1209 972 -1609 309 -231
662 -377 1060 -437 166 -25 523 -26 685 -1 550 84 1001 313 1370 693 311 321
514 687 619 1116 51 211 65 330 65 568 1 229 -12 348 -59 545 -129 547 -456
1038 -930 1395 -303 228 -665 377 -1055 435 -133 19 -455 28 -580 15z m65
-1109 c-16 -16 -555 51 -555 69 0 28 170 339 224 411 82 108 195 215 272 256
l59 32 3 -381 c1 -210 0 -384 -3 -387z m546 609 c54 -54 120 -133 154 -184 54
-83 191 -353 183 -361 -8 -8 -486 -65 -550 -65 -5 0 -8 174 -8 386 l0 385 63
-33 c40 -21 95 -65 158 -128z m-1207 -36 c-42 -63 -142 -259 -193 -378 -21
-48 -21 -48 -58 -41 -21 4 -101 27 -178 53 l-139 45 74 69 c101 93 226 175
394 259 77 38 141 67 143 66 2 -2 -18 -35 -43 -73z m1790 -21 c50 -25 129 -70
176 -100 86 -56 249 -183 250 -194 1 -13 -336 -136 -346 -126 -3 2 -40 76 -83
163 -67 138 -120 232 -179 322 l-15 23 53 -21 c30 -12 94 -42 144 -67z m-2450
-598 c75 -30 181 -68 235 -85 l98 -31 -18 -92 c-46 -231 -87 -542 -104 -774
l-7 -93 -399 0 c-230 0 -399 4 -399 9 0 5 9 62 20 128 61 354 183 658 377 931
24 34 48 62 52 62 5 0 70 -25 145 -55z m3206 -61 c198 -290 309 -591 355 -961
l7 -53 -400 0 -400 0 -7 88 c-21 277 -55 508 -107 725 -16 71 -28 130 -26 131
1 1 77 29 168 60 91 32 197 73 235 91 39 19 77 33 85 32 8 -1 48 -52 90 -113z
m-2390 -163 c98 -16 444 -51 499 -51 8 0 11 -122 11 -400 l0 -400 -401 0 -401
0 7 88 c16 218 55 489 96 677 25 116 26 117 46 111 10 -3 74 -14 143 -25z
m1522 -52 c42 -180 84 -472 104 -716 l6 -83 -401 0 -401 0 0 398 0 399 122 7
c143 8 316 30 443 55 50 10 94 18 100 16 5 -1 17 -35 27 -76z m-2127 -1206
c21 -278 55 -509 107 -726 16 -71 28 -130 26 -131 -1 -2 -77 -29 -168 -61 -91
-31 -199 -72 -240 -91 -41 -19 -79 -33 -85 -30 -19 7 -151 207 -209 317 -124
235 -195 467 -231 757 l-7 52 400 0 400 0 7 -87z m1115 -313 l0 -400 -52 0
c-93 0 -278 -20 -438 -47 -85 -14 -162 -26 -170 -27 -16 -1 -26 37 -65 243
-26 138 -59 391 -70 544 l-7 87 401 0 401 0 0 -400z m1115 318 c-20 -253 -58
-511 -104 -713 -15 -68 -21 -80 -37 -78 -10 1 -80 11 -154 22 -122 18 -191 26
-427 47 l-73 6 0 399 0 399 401 0 401 0 -7 -82z m1120 30 c-36 -290 -107 -522
-231 -757 -58 -110 -190 -310 -209 -317 -6 -3 -44 11 -85 30 -41 19 -149 60
-240 92 -91 31 -167 59 -168 60 -2 1 10 60 26 131 52 217 86 448 107 726 l7
87 400 0 400 0 -7 -52z m-2235 -1454 l0 -385 -62 33 c-82 43 -236 196 -311
308 -54 82 -194 357 -186 365 9 9 426 59 532 64 l27 1 0 -386z m555 371 c128
-15 317 -45 323 -50 9 -8 -130 -280 -184 -361 -77 -116 -229 -269 -311 -312
l-63 -33 0 385 0 386 53 0 c28 0 110 -7 182 -15z m-1361 -272 c67 -137 124
-240 182 -329 l17 -25 -51 20 c-87 35 -233 111 -322 169 -85 55 -249 182 -250
193 0 9 309 127 336 128 6 1 46 -70 88 -156z m2140 103 c55 -19 128 -46 161
-61 l60 -27 -35 -30 c-75 -64 -152 -120 -231 -169 -84 -52 -339 -182 -346
-176 -2 2 18 35 43 73 42 63 142 259 192 377 13 29 27 47 38 47 9 0 62 -15
118 -34z"/>
</g>
</svg>
